<?xml version="1.0" encoding="UTF-8" standalone="no"?>
<svg
   xmlns:dc="http://purl.org/dc/elements/1.1/"
   xmlns:cc="http://creativecommons.org/ns#"
   xmlns:rdf="http://www.w3.org/1999/02/22-rdf-syntax-ns#"
   xmlns:svg="http://www.w3.org/2000/svg"
   xmlns="http://www.w3.org/2000/svg"
   xmlns:sodipodi="http://sodipodi.sourceforge.net/DTD/sodipodi-0.dtd"
   xmlns:inkscape="http://www.inkscape.org/namespaces/inkscape"
   width="24.452436mm"
   height="28.336393mm"
   viewBox="0 0 24.452436 28.336393"
   version="1.1"
   id="svg8"
   inkscape:version="1.0.2 (e86c870879, 2021-01-15)"
   sodipodi:docname="logo.svg">
  <defs
     id="defs2" />
  <sodipodi:namedview
     id="base"
     pagecolor="#ffffff"
     bordercolor="#666666"
     borderopacity="1.0"
     inkscape:pageopacity="0.0"
     inkscape:pageshadow="2"
     inkscape:zoom="1.979899"
     inkscape:cx="95.924644"
     inkscape:cy="85.026713"
     inkscape:document-units="mm"
     inkscape:current-layer="layer1"
     inkscape:document-rotation="0"
     showgrid="false"
     inkscape:window-width="1346"
     inkscape:window-height="1040"
     inkscape:window-x="104"
     inkscape:window-y="0"
     inkscape:window-maximized="0" />
  <metadata
     id="metadata5">
    <rdf:RDF>
      <cc:Work
         rdf:about="">
        <dc:format>image/svg+xml</dc:format>
        <dc:type
           rdf:resource="http://purl.org/dc/dcmitype/StillImage" />
        <dc:title></dc:title>
      </cc:Work>
    </rdf:RDF>
  </metadata>
  <g
     inkscape:label="Layer 1"
     inkscape:groupmode="layer"
     id="layer1"
     transform="translate(-110.99402,-135.51041)">
    <g
       id="g5205"
       transform="translate(225.99373,-1197.983)"
       style="fill:#ffd52d;fill-opacity:1"
       inkscape:export-filename="C:\Users\Jedrek\Documents\Projects\MoneyApp\logo_transparent2.png"
       inkscape:export-xdpi="531.84039"
       inkscape:export-ydpi="531.84039">
      <path
         id="path5170"
         style="color:#000000;font-style:normal;font-variant:normal;font-weight:800;font-stretch:normal;font-size:medium;line-height:1.25;font-family:'Baloo Bhai 2';-inkscape-font-specification:'Baloo Bhai 2 Ultra-Bold';font-variant-ligatures:normal;font-variant-position:normal;font-variant-caps:normal;font-variant-numeric:normal;font-variant-alternates:normal;font-variant-east-asian:normal;font-feature-settings:normal;font-variation-settings:normal;text-indent:0;text-align:start;text-decoration:none;text-decoration-line:none;text-decoration-style:solid;text-decoration-color:#000000;letter-spacing:0px;word-spacing:0px;text-transform:none;writing-mode:lr-tb;direction:ltr;text-orientation:mixed;dominant-baseline:auto;baseline-shift:baseline;text-anchor:start;white-space:normal;shape-padding:0;shape-margin:0;inline-size:0;clip-rule:nonzero;display:inline;overflow:visible;visibility:visible;isolation:auto;mix-blend-mode:normal;color-interpolation:sRGB;color-interpolation-filters:linearRGB;solid-color:#000000;solid-opacity:1;vector-effect:none;fill:#ffd52d;fill-opacity:1;fill-rule:nonzero;stroke:none;stroke-width:1.5875;stroke-linecap:butt;stroke-linejoin:round;stroke-miterlimit:4;stroke-dasharray:none;stroke-dashoffset:0;stroke-opacity:1;color-rendering:auto;image-rendering:auto;shape-rendering:auto;text-rendering:auto;enable-background:accumulate;stop-color:#000000"
         d="m -104.43004,1342.5624 c -0.33124,0 -0.6318,0.024 -0.89865,0.068 a 0.79718391,0.79048889 0 0 1 -0.0429,0.01 c -0.0143,0 -0.0155,0 -0.0294,0.01 v 1.404 a 0.79718391,0.79048889 0 0 1 -0.62787,0.7721 c -1.25142,0.2703 -2.13283,0.7557 -2.73988,1.4293 a 0.79718391,0.79048889 0 0 1 -0.006,0.01 c -0.60672,0.6589 -0.90072,1.4253 -0.90072,2.4484 0,0.677 0.11341,1.2109 0.29817,1.6221 0.21533,0.4219 0.49751,0.7835 0.87127,1.0971 0.38985,0.3272 0.86811,0.619 1.43919,0.8713 h 0.006 c 0.60791,0.2507 1.28698,0.5027 2.0376,0.7566 h 0.006 l 1.10226,0.3659 a 0.79718391,0.79048889 0 0 1 0.008,0 c 0.55169,0.1887 1.00489,0.4039 1.38286,0.6811 0.46211,0.3199 0.76275,0.8966 0.76275,1.4526 0,0.6122 -0.34756,1.1787 -0.82579,1.5581 -0.59969,0.4756 -1.36977,0.5912 -2.31821,0.5912 -0.93266,0 -1.81893,-0.1559 -2.63808,-0.4728 a 0.79718391,0.79048889 0 0 1 -0.006,0 c -0.53771,-0.2133 -0.96641,-0.5016 -1.40663,-0.7819 -0.14976,0.1179 -0.30026,0.2063 -0.44907,0.3886 a 0.79718391,0.79048889 0 0 1 -0.0119,0.016 c -0.1758,0.205 -0.2589,0.4171 -0.2589,0.7684 0,0.2868 0.0642,0.5002 0.19431,0.7044 0.14566,0.2287 0.34999,0.4336 0.63768,0.6242 h 0.002 c 0.31526,0.1971 0.69224,0.3686 1.13792,0.5059 0.47328,0.1404 1.00495,0.2441 1.59473,0.309 a 0.79718391,0.79048889 0 0 1 0.70797,0.786 v 0.2083 c 0,0.6132 0.14848,0.8081 0.17622,0.8284 a 0.79718391,0.79048889 0 0 1 0.006,0 c 0.12724,0.095 0.52707,0.2351 1.21026,0.2351 0.33125,0 0.62923,-0.024 0.89607,-0.068 a 0.79718391,0.79048889 0 0 1 0.045,-0.01 c 0.0143,0 0.0155,0 0.0294,-0.01 v -1.3793 a 0.79718391,0.79048889 0 0 1 0.63562,-0.7756 c 1.33791,-0.2718 2.26775,-0.7672 2.885098,-1.4475 5.29e-4,0 0.0013,0 0.0021,0 0.63432,-0.7177 0.935861,-1.5181 0.935861,-2.5363 0,-1.2271 -0.357677,-2.0723 -1.088824,-2.7404 a 0.79718391,0.79048889 0 0 1 -0.01188,-0.012 c -0.759115,-0.7226 -1.914445,-1.359 -3.489195,-1.8573 a 0.79718391,0.79048889 0 0 1 -0.002,0 l -1.38855,-0.4413 c -0.002,0 -0.003,0 -0.006,0 h -0.004 c -0.49645,-0.152 -0.89811,-0.3131 -1.23765,-0.5462 a 0.79718391,0.79048889 0 0 1 -0.0331,-0.024 c -0.38127,-0.2908 -0.65319,-0.7917 -0.65319,-1.2816 0,-0.616 0.42247,-1.1831 0.94154,-1.4841 0.58439,-0.3557 1.28504,-0.4568 2.14922,-0.4568 0.83816,0 1.6261,0.1057 2.358,0.3209 0.002,0 0.004,0 0.006,0 0.44457,0.1201 0.77062,0.2984 1.126032,0.4609 0.09995,-0.1043 0.214302,-0.1936 0.298174,-0.3173 0.121021,-0.1923 0.19017,-0.4184 0.19017,-0.7467 0,-0.494 -0.140737,-0.7504 -0.631486,-1.0578 a 0.79718391,0.79048889 0 0 1 -0.008,-0.01 c -0.51407,-0.3307 -1.26898,-0.5865 -2.27893,-0.7157 a 0.79718391,0.79048889 0 0 1 -0.69453,-0.784 v -0.2878 c 0,-0.6069 -0.14311,-0.7857 -0.1881,-0.817 a 0.79718391,0.79048889 0 0 1 -0.0372,-0.027 c -0.0992,-0.078 -0.48365,-0.2217 -1.16685,-0.2217 z" />
      <path
         id="path5144"
         style="color:#000000;font-style:normal;font-variant:normal;font-weight:normal;font-stretch:normal;font-size:medium;line-height:normal;font-family:sans-serif;font-variant-ligatures:normal;font-variant-position:normal;font-variant-caps:normal;font-variant-numeric:normal;font-variant-alternates:normal;font-variant-east-asian:normal;font-feature-settings:normal;font-variation-settings:normal;text-indent:0;text-align:start;text-decoration:none;text-decoration-line:none;text-decoration-style:solid;text-decoration-color:#000000;letter-spacing:normal;word-spacing:normal;text-transform:none;writing-mode:lr-tb;direction:ltr;text-orientation:mixed;dominant-baseline:auto;baseline-shift:baseline;text-anchor:start;white-space:normal;shape-padding:0;shape-margin:0;inline-size:0;clip-rule:nonzero;display:inline;overflow:visible;visibility:visible;isolation:auto;mix-blend-mode:normal;color-interpolation:sRGB;color-interpolation-filters:linearRGB;solid-color:#000000;solid-opacity:1;vector-effect:none;fill:#ffd52d;fill-opacity:1;fill-rule:nonzero;stroke:none;stroke-width:1.5875;stroke-linecap:round;stroke-linejoin:round;stroke-miterlimit:4;stroke-dasharray:none;stroke-dashoffset:0;stroke-opacity:1;color-rendering:auto;image-rendering:auto;shape-rendering:auto;text-rendering:auto;enable-background:accumulate;stop-color:#000000"
         d="m -99.418976,1341.8172 c -0.920714,0 -1.734774,0.059 -2.459284,0.1639 0.24972,0.3804 0.35843,0.856 0.39016,1.3632 0.8445,0.1704 1.673267,0.3508 2.285132,0.7431 0.844347,0.5298 1.372526,1.4223 1.372526,2.3921 0,0.027 -0.0019,0.054 -0.0026,0.082 2.372657,0 4.21635,-0.01 5.437913,0.072 h 0.773594 c -0.173027,-1.2435 -0.569032,-2.3351 -1.506368,-3.1404 -1.149009,-0.9872 -3.099763,-1.6758 -6.291088,-1.6754 z m -4.737694,0.7545 c -0.48276,0.1974 -0.89464,0.4267 -1.24437,0.6811 v 0.7938 a 0.79718391,0.79048889 0 0 1 -0.62787,0.772 c -0.2748,0.059 -0.5288,0.131 -0.76894,0.2108 -0.20457,0.4946 -0.33497,1.0319 -0.41445,1.6036 h 1.64383 c 1.41793,-0.071 3.37117,-0.072 6.139159,-0.072 0.0011,-0.028 0.0047,-0.052 0.0047,-0.082 0,-0.494 -0.140737,-0.7504 -0.631489,-1.0578 a 0.79718391,0.79048889 0 0 1 -0.008,-0.01 c -0.51406,-0.3307 -1.26898,-0.5864 -2.27893,-0.7157 a 0.79718391,0.79048889 0 0 1 -0.69453,-0.7839 v -0.2878 c 0,-0.607 -0.14311,-0.7858 -0.1881,-0.8171 a 0.79718391,0.79048889 0 0 1 -0.0372,-0.027 c -0.085,-0.067 -0.38136,-0.1807 -0.89348,-0.2124 z m 5.836334,5.5775 c -0.251286,0.3614 -0.553792,0.6803 -0.904335,0.9461 a 0.79718391,0.79048889 0 0 1 -0.912089,0.039 c -0.28867,-0.1821 -0.73718,-0.3708 -1.33584,-0.5312 a 0.79718391,0.79048889 0 0 1 -0.0196,-0.01 c -0.56793,-0.1675 -1.20315,-0.2547 -1.91048,-0.2547 -0.71459,0 -1.16717,0.1279 -1.31981,0.2217 a 0.79718391,0.79048889 0 0 1 -0.0253,0.013 c -0.21196,0.12 -0.15142,0.084 -0.15142,0.1245 0,0.011 0.0135,0.012 0.01,0.01 0.11822,0.079 0.39193,0.2102 0.7984,0.3343 a 0.79718391,0.79048889 0 0 1 0.01,0 l 1.39681,0.4454 c 0.59817,0.1893 1.15062,0.4016 1.66295,0.6351 0.54939,0 1.060175,0 1.688783,0 4.177099,0 6.584781,-0.04 7.787121,-0.2506 0.601179,-0.1053 0.848299,-0.2526 0.907439,-0.3121 0.05914,-0.06 0.09043,-0.1049 0.09043,-0.4295 8e-6,-0.4048 -0.05085,-0.5134 -0.08475,-0.5524 -0.03389,-0.039 -0.215418,-0.169 -0.792715,-0.262 -0.342064,-0.055 -0.811766,-0.092 -1.393195,-0.1183 -0.534829,0.4266 -1.623497,1.2404 -2.159559,1.2454 -0.49082,0 -1.281879,-0.7862 -1.748215,-1.3038 -0.481746,0 -1.053135,0 -1.594218,0 z m -8.108034,0.14 c -0.28533,0.026 -0.54231,0.054 -0.7431,0.09 -0.56217,0.1007 -0.73267,0.2325 -0.76172,0.2667 -0.029,0.034 -0.0734,0.1245 -0.0734,0.495 1e-5,0.3483 0.0375,0.4128 0.0863,0.4646 0.0488,0.052 0.2701,0.1943 0.85473,0.2961 0.32914,0.057 0.76706,0.1 1.30173,0.1323 -0.014,-0.01 -0.0296,-0.017 -0.0434,-0.026 a 0.79718391,0.79048889 0 0 1 -0.0331,-0.024 c -0.38126,-0.2908 -0.65319,-0.7917 -0.65319,-1.2815 0,-0.1416 0.0245,-0.2797 0.0651,-0.4134 z m -0.91002,3.8256 c 2.7e-4,0.013 2.7e-4,0.033 5.3e-4,0.048 0.0893,0.044 0.17699,0.089 0.2713,0.1302 h 0.006 c 0.60791,0.2507 1.28699,0.5027 2.0376,0.7565 h 0.006 l 1.10226,0.3658 a 0.79718391,0.79048889 0 0 1 0.008,0 c 0.2587,0.088 0.49382,0.1841 0.71158,0.2878 1.02124,0.075 2.24897,0.1235 3.775999,0.1235 0.169814,0 0.311258,0 0.47439,-0.01 -0.176695,-0.3607 -0.414695,-0.6775 -0.723472,-0.9596 a 0.79718391,0.79048889 0 0 1 -0.01188,-0.012 c -0.272616,-0.2595 -0.598187,-0.5072 -0.974097,-0.7421 z m 9.143628,0 c 0.421169,0.4894 0.731914,1.0564 0.933278,1.6805 3.289675,-0.1137 4.866907,-0.4792 5.390885,-0.8056 0.314277,-0.1958 0.322154,-0.265 0.363284,-0.5085 0.01246,-0.074 0.0093,-0.2614 0.01188,-0.3664 z" />
      <path
         id="path5162"
         style="color:#000000;font-style:normal;font-variant:normal;font-weight:normal;font-stretch:normal;font-size:medium;line-height:normal;font-family:sans-serif;font-variant-ligatures:normal;font-variant-position:normal;font-variant-caps:normal;font-variant-numeric:normal;font-variant-alternates:normal;font-variant-east-asian:normal;font-feature-settings:normal;font-variation-settings:normal;text-indent:0;text-align:start;text-decoration:none;text-decoration-line:none;text-decoration-style:solid;text-decoration-color:#000000;letter-spacing:normal;word-spacing:normal;text-transform:none;writing-mode:lr-tb;direction:ltr;text-orientation:mixed;dominant-baseline:auto;baseline-shift:baseline;text-anchor:start;white-space:normal;shape-padding:0;shape-margin:0;inline-size:0;clip-rule:nonzero;display:inline;overflow:visible;visibility:visible;isolation:auto;mix-blend-mode:normal;color-interpolation:sRGB;color-interpolation-filters:linearRGB;solid-color:#000000;solid-opacity:1;vector-effect:none;fill:#ffd52d;fill-opacity:1;fill-rule:nonzero;stroke:none;stroke-width:1.587;stroke-linecap:round;stroke-linejoin:round;stroke-miterlimit:4;stroke-dasharray:none;stroke-dashoffset:0;stroke-opacity:1;color-rendering:auto;image-rendering:auto;shape-rendering:auto;text-rendering:auto;enable-background:accumulate;stop-color:#000000"
         d="m -110.49944,1333.4942 c -0.77953,0.016 -1.42333,0.1698 -1.75389,0.3519 -0.32956,0.1815 -0.33481,0.2048 -0.3049,0.4098 0.0224,0.151 0.0445,0.2357 0.0589,0.2641 0.0144,0.029 -0.0147,0.021 0.0837,0.061 a 0.79357936,0.79357936 0 0 1 0.416,1.0857 c -0.58651,1.1914 -0.74269,2.9494 -0.73433,5.0234 a 0.79357936,0.79357936 0 0 1 -0.1328,0.4414 c -1.27607,1.922 -1.93866,3.9215 -2.08411,6.629 -0.14493,2.698 0.0787,9.6865 0.0801,9.7286 0.0238,0.3024 0.46847,0.7731 1.36116,0.7731 h 2.31149 c -0.0454,-0.2088 -0.0698,-0.4233 -0.0698,-0.6398 0,-0.6574 0.21699,-1.2938 0.63561,-1.7854 0.35036,-0.427 0.74816,-0.7781 1.20045,-1.0247 a 0.79718391,0.79048889 0 0 1 0.87695,0.072 c 0.42082,0.3279 0.9511,0.625 1.59628,0.8811 0.39693,0.153 0.82041,0.2525 1.26866,0.3085 0.0204,-0.4807 0.0333,-0.8872 0.0527,-1.5575 -0.74514,-0.2541 -1.43249,-0.5088 -2.05466,-0.7659 a 0.79718391,0.79048889 0 0 1 -0.0176,-0.01 c -0.69192,-0.3049 -1.30328,-0.6737 -1.82625,-1.1125 -0.53591,-0.4496 -0.96767,-0.9929 -1.27899,-1.6103 a 0.79718391,0.79048889 0 0 1 -0.0134,-0.029 c -0.30444,-0.6684 -0.43977,-1.4361 -0.43977,-2.2872 0,-1.3476 0.44488,-2.5674 1.31413,-3.5125 5.3e-4,0 0.001,0 0.002,0 0.73487,-0.813 1.76883,-1.3369 2.95589,-1.6899 v -1.0361 c -0.21628,-0.4548 -0.46398,-0.8901 -0.75965,-1.3348 a 0.79357936,0.79357936 0 0 1 -0.13281,-0.4532 c 1.4e-4,-0.01 -1.1e-4,-0.015 0,-0.022 l -0.0274,-0.941 c -0.10219,-1.7297 -0.23182,-3.075 -0.71107,-4.0432 a 0.79357936,0.79357936 0 0 1 0.36174,-1.0645 c 0,0 0.29659,-0.092 0.25166,-0.4315 -0.002,-0.013 -0.0957,-0.2025 -0.55087,-0.3865 -0.45517,-0.1842 -1.15991,-0.3075 -1.93529,-0.2915 z m 4.30103,11.3662 c -1.15994,0.2769 -1.99177,0.7455 -2.57038,1.3875 a 0.79718391,0.79048889 0 0 1 -0.006,0.01 c -0.60672,0.6589 -0.90072,1.4253 -0.90072,2.4484 0,0.677 0.11341,1.2109 0.29817,1.6221 0.21533,0.4219 0.49751,0.7835 0.87127,1.0971 0.38985,0.3272 0.86811,0.619 1.43919,0.8713 h 0.006 c 0.44324,0.1828 0.93762,0.3665 1.45676,0.5509 0.005,-0.3468 0.0132,-0.681 0.0139,-1.0346 0.001,-0.5702 -0.007,-1.1348 -0.0196,-1.6846 -0.0675,-0.039 -0.13492,-0.077 -0.19792,-0.1204 a 0.79718391,0.79048889 0 0 1 -0.0331,-0.024 c -0.38126,-0.2909 -0.65319,-0.7918 -0.65319,-1.2816 0,-0.5196 0.30186,-1.0022 0.70745,-1.3219 -0.0745,-0.6153 -0.15474,-1.1822 -0.24494,-1.6893 -0.0523,-0.2941 -0.10881,-0.5675 -0.16744,-0.8309 z m -2.75694,11.589 c -0.14975,0.1179 -0.30026,0.2063 -0.44906,0.3886 a 0.79718391,0.79048889 0 0 1 -0.0119,0.016 c -0.1758,0.205 -0.2589,0.4171 -0.2589,0.7684 0,0.2572 0.0547,0.4544 0.15916,0.6398 h 2.39934 c 0.7381,0 1.16569,-0.3224 1.30742,-0.6067 -0.6037,-0.069 -1.18421,-0.2075 -1.73375,-0.4201 a 0.79718391,0.79048889 0 0 1 -0.006,0 c -0.53771,-0.2133 -0.96641,-0.5016 -1.40663,-0.7819 z" />
    </g>
  </g>
</svg>
