<svg width="64" height="64" viewBox="0 0 64 64" fill="none" xmlns="http://www.w3.org/2000/svg">
<path d="M34.4608 0.0153573H34.4595C32.8774 0.0471155 31.5865 0.371296 30.9692 0.71233C30.355 1.05068 30.4379 0.958088 30.4835 1.26516C30.527 1.55319 30.5658 1.67851 30.5731 1.69561C30.5829 1.69659 30.5707 1.69561 30.6034 1.69561C30.8499 1.79575 31.0732 1.94564 31.2594 2.13594C31.4455 2.32624 31.5905 2.55287 31.6853 2.8017C31.7801 3.05053 31.8227 3.31624 31.8104 3.58226C31.7981 3.84828 31.7311 4.10891 31.6138 4.34791C30.4377 6.74467 30.1095 10.3595 30.1266 14.6544C30.1274 15.0379 30.0146 15.4131 29.8024 15.7325C28.7631 17.3033 27.9308 18.9005 27.277 20.6005H38.5074C38.7322 19.4005 39.0363 18.2458 39.4472 17.1452C39.2707 16.9302 38.9326 16.7956 38.8228 16.5782C38.5713 16.0781 38.5467 15.7518 38.4898 15.4181C38.423 15.2644 38.3764 15.1027 38.3511 14.9371C38.1683 13.6833 38.6531 12.476 39.4322 11.5602C39.2247 8.51213 38.9197 6.09069 38.0648 4.35792C37.952 4.12936 37.8853 3.88079 37.8685 3.62641C37.8518 3.37203 37.8853 3.11684 37.9672 2.87544C38.0491 2.63404 38.1777 2.41118 38.3458 2.21959C38.5138 2.02799 38.718 1.87144 38.9465 1.75888C38.9465 1.75888 39.3588 1.67582 39.3098 1.18308C39.2927 1.20751 39.1306 0.905807 38.3511 0.589691C37.4603 0.227404 36.0326 -0.0291027 34.4609 0.00265543L34.4608 0.0153573ZM17.0254 6.58002L17.0242 6.60445C15.4421 6.6362 14.1524 6.95891 13.5351 7.29995C12.9209 7.63854 13.0025 7.5418 13.0482 7.84912C13.0914 8.13861 13.1304 8.26076 13.1377 8.27835C13.1475 8.27932 13.1329 8.27835 13.168 8.27835C13.4147 8.37836 13.6381 8.52817 13.8244 8.71841C14.0107 8.90865 14.1558 9.13526 14.2508 9.38411C14.3457 9.63295 14.3883 9.8987 14.3761 10.1648C14.3639 10.4309 14.297 10.6916 14.1797 10.9306C13.0036 13.3274 12.6741 16.9422 12.6912 21.2371C12.692 21.6207 12.5792 21.9958 12.367 22.3152C11.3274 23.8863 10.4952 25.4839 9.84164 27.1833H24.8702C24.2611 25.4011 23.4933 23.8782 22.4508 22.3052C22.233 21.9776 22.12 21.5915 22.1266 21.1981C22.1266 21.1712 22.1315 21.1443 22.1315 21.1174L22.0746 19.2225C21.8632 15.6333 21.5858 12.874 20.6291 10.9348C20.4023 10.4734 20.368 9.94077 20.5336 9.45403C20.6992 8.96729 21.0511 8.56628 21.512 8.33917C21.512 8.33917 21.9238 8.25611 21.8741 7.76362C21.857 7.78805 21.6949 7.48122 20.9154 7.1651C20.0245 6.80281 18.5968 6.55143 17.0252 6.58319L17.0254 6.58002ZM46.1605 13.1359H46.1592C45.7637 13.1359 45.3858 13.1701 45.0327 13.2092C43.974 13.3289 43.1329 13.5756 42.6701 13.8316C42.3652 14.0002 42.2332 14.0613 42.1832 14.1194C42.1583 14.1487 42.1532 14.1756 42.158 14.2147C42.1629 14.2538 42.1776 14.3051 42.1883 14.3808C42.232 14.6757 42.2708 14.7995 42.2779 14.8164C42.2877 14.8183 42.273 14.8164 42.3031 14.8164C42.3471 14.8351 42.3904 14.8555 42.4329 14.8775C42.4627 14.8922 42.4922 14.9076 42.5213 14.9239C42.5438 14.9364 42.5661 14.9495 42.5882 14.963C42.6194 14.9816 42.6501 15.0012 42.6802 15.0216C42.7089 15.042 42.7371 15.0632 42.7646 15.0851C42.786 15.1018 42.807 15.1189 42.8276 15.1364C42.8575 15.1616 42.8865 15.1876 42.9148 15.2146C42.9319 15.2314 42.9488 15.2485 42.9653 15.2659C42.9949 15.2959 43.0234 15.3268 43.051 15.3587C43.0647 15.3748 43.0781 15.3911 43.0913 15.4076C43.119 15.4425 43.1455 15.4783 43.1708 15.5151C43.1833 15.5328 43.1955 15.5507 43.2074 15.5688C43.2272 15.6 43.2461 15.6318 43.2641 15.6641C43.2799 15.6922 43.295 15.7207 43.3095 15.7496C43.3236 15.7777 43.337 15.8063 43.3498 15.8351C43.3623 15.8641 43.3741 15.8934 43.3851 15.923C43.3983 15.9569 43.4105 15.9911 43.4218 16.0256C43.4296 16.0507 43.4369 16.076 43.4437 16.1014C43.4542 16.1393 43.4634 16.1776 43.4716 16.2162C43.477 16.2438 43.4819 16.2714 43.4862 16.2992C43.492 16.3333 43.4969 16.3675 43.5008 16.4018C43.5039 16.4295 43.5063 16.4572 43.5082 16.4849C43.511 16.5239 43.5126 16.563 43.513 16.6022C43.5131 16.6282 43.5127 16.6543 43.5118 16.6803C43.5107 16.7227 43.5083 16.7651 43.5044 16.8074C43.5023 16.8253 43.4998 16.8432 43.4971 16.8611C43.4916 16.9086 43.4842 16.9559 43.4752 17.0028C43.4714 17.0208 43.4673 17.0387 43.463 17.0565C43.4544 17.0943 43.4447 17.1318 43.4339 17.1689C43.425 17.1993 43.4153 17.2294 43.4049 17.2593C43.3932 17.2922 43.3805 17.3248 43.367 17.357C43.3511 17.3975 43.3339 17.4374 43.3153 17.4767C43.1849 17.7425 43.0687 18.0286 42.9583 18.3237C42.9219 18.4214 42.8878 18.5216 42.8536 18.6217C42.7796 18.8367 42.7113 19.062 42.6468 19.2921C42.6175 19.3971 42.5858 19.4997 42.5585 19.6065C42.476 19.9285 42.4005 20.2602 42.3339 20.6064C42.3168 20.7017 42.3007 20.8043 42.2834 20.9003C42.237 21.1614 42.1943 21.4284 42.156 21.702C42.134 21.8682 42.112 22.0357 42.0915 22.2058C42.0744 22.345 42.061 22.4899 42.0461 22.6326C41.9839 23.2257 41.9326 23.8357 41.8984 24.4755C41.8983 24.4755 41.8973 24.4755 41.8972 24.4755C41.8418 25.5201 41.8181 26.6194 41.8227 27.773C41.8251 28.156 41.714 28.5311 41.5036 28.851C40.4642 30.4219 39.6317 32.019 38.977 33.7176H54.0005C54.393 34.8658 54.7234 36.1249 55.002 37.5921H37.853C37.5401 39.1021 37.3258 40.7059 37.2312 42.4726C37.1994 43.0665 37.1801 43.8045 37.1643 44.5745C37.1423 45.6865 37.1362 46.9483 37.1391 48.2695H37.1343C37.1367 49.5227 37.1562 50.8243 37.1745 52.1249C37.1994 53.9793 37.2282 55.8584 37.2653 57.4637C37.2656 57.4881 37.2663 57.4979 37.2666 57.5125H55.8726C55.9414 55.3635 55.9978 52.7933 56 50.2612C55.9997 49.7259 55.9996 49.1914 55.9927 48.6642C55.9902 48.417 55.9902 48.1683 55.9853 47.9243C55.9682 46.9713 55.9404 46.0483 55.8997 45.1786C55.8875 44.9004 55.8716 44.6285 55.8555 44.3617C55.8433 44.1492 55.8311 43.932 55.8164 43.728C55.7788 43.2131 55.7368 42.7167 55.6853 42.2637C55.5899 41.4258 55.4915 40.6438 55.3864 39.908C55.2814 39.1727 55.1699 38.4848 55.0508 37.8364C54.6937 35.8906 54.2644 34.3032 53.7049 32.8714C53.5184 32.394 53.3181 31.9352 53.1007 31.4853C52.8832 31.0348 52.6496 30.5941 52.3968 30.1558C52.1442 29.7178 51.8728 29.2825 51.5807 28.8415C51.5452 28.7878 51.5123 28.7324 51.4823 28.6754C51.4225 28.5606 51.3744 28.4402 51.3385 28.3158C51.3232 28.2618 51.3101 28.2072 51.2995 28.1521C51.297 28.1432 51.2945 28.1342 51.2922 28.1252C51.2807 28.063 51.2723 28.0002 51.267 27.9371C51.263 27.8811 51.2613 27.8248 51.2621 27.7686C51.2616 27.758 51.2612 27.7474 51.2608 27.7368C51.261 27.7368 51.2607 27.7075 51.2608 27.7075L51.2028 25.7422C51.1234 24.4 51.0353 23.1744 50.9051 22.0633C50.9002 22.0194 50.8928 21.9803 50.888 21.9363C50.8042 21.2457 50.7056 20.5971 50.5802 19.9971C50.5133 19.6778 50.4401 19.3717 50.3583 19.0781C50.2765 18.7849 50.1865 18.505 50.0871 18.2375C49.9877 17.97 49.8784 17.7154 49.7591 17.4736C49.7351 17.424 49.7132 17.3735 49.6935 17.3221C49.6812 17.289 49.6699 17.2556 49.6595 17.2219C49.65 17.1944 49.6412 17.1668 49.6329 17.1389C49.6249 17.1097 49.6176 17.0804 49.611 17.0509C49.6026 17.0145 49.5953 16.9778 49.589 16.941C49.5841 16.9085 49.58 16.876 49.5768 16.8433C49.5738 16.8181 49.5714 16.7928 49.5695 16.7675C49.5665 16.7253 49.5648 16.6829 49.5646 16.6405C49.5637 16.6161 49.5633 16.5917 49.5633 16.5672C49.5648 16.5322 49.5672 16.4971 49.5706 16.4622C49.5731 16.4295 49.5763 16.397 49.5804 16.3645C49.5846 16.3359 49.5895 16.3074 49.5951 16.279C49.6007 16.2462 49.6072 16.2136 49.6146 16.1812C49.6249 16.1385 49.6367 16.0961 49.65 16.0542C49.6554 16.037 49.6611 16.0199 49.6671 16.0029C49.6783 15.9692 49.6906 15.9358 49.7037 15.9027C49.7166 15.869 49.7306 15.8356 49.7454 15.8026C49.7556 15.7821 49.766 15.7617 49.7769 15.7415C49.7943 15.7068 49.8128 15.6726 49.8323 15.6389C49.8496 15.6099 49.8677 15.5814 49.8865 15.5534C49.9028 15.5286 49.9196 15.5042 49.937 15.4801C49.9545 15.4561 49.9726 15.4325 49.9912 15.4093C50.0139 15.3809 50.0375 15.3532 50.0618 15.3262C50.0902 15.2951 50.1197 15.265 50.1501 15.2358C50.1601 15.2259 50.1702 15.2162 50.1804 15.2065C50.2186 15.1715 50.2582 15.1381 50.299 15.1064C50.3102 15.0973 50.3215 15.0883 50.333 15.0795C50.3682 15.053 50.4044 15.0277 50.4413 15.0037C50.4613 14.9903 50.4814 14.9773 50.5019 14.9647C50.5499 14.9348 50.5991 14.9071 50.6496 14.8816C50.6496 14.8816 50.7521 14.8572 50.8487 14.779C50.8971 14.7375 50.9447 14.6813 50.9762 14.6031C51.0077 14.5249 51.024 14.4297 51.0116 14.3051C51.0067 14.3051 50.9696 14.2709 50.922 14.2245C50.9024 14.2 50.8905 14.1951 50.8527 14.1634C50.8053 14.1243 50.7301 14.073 50.652 14.0217C50.6203 13.9973 50.5976 13.9826 50.56 13.9606C50.4286 13.8824 50.2643 13.7969 50.0491 13.7095C49.381 13.4378 48.4106 13.2282 47.3042 13.154C46.9355 13.1295 46.5518 13.1198 46.1589 13.1271L46.1605 13.1359ZM37.8565 37.6092C37.9954 36.9391 38.1561 36.2886 38.3384 35.6549C38.1546 36.2866 37.9954 36.9389 37.8565 37.6092ZM27.8913 24.4926C29.1095 27.3865 29.8816 30.7055 30.4028 35.2826C30.6916 37.8176 30.7755 41.1466 30.7699 44.4072H33.294C33.3111 43.6474 33.3316 42.9004 33.3645 42.285C33.6783 36.4259 35.2457 31.6839 37.97 27.3545C37.97 26.3781 37.9944 25.4243 38.0496 24.4926H27.8913ZM8.72148 31.0521C8.40937 32.5621 8.19547 34.1659 8.10088 35.9326C7.91341 39.4324 8.02471 46.2088 8.13358 50.9731H26.7421C26.8914 46.3161 27.0074 39.6935 26.5553 35.723C26.352 33.9372 26.1288 32.4128 25.8704 31.0521H8.72148ZM38.6386 34.6877C38.5371 34.9894 38.4428 35.2975 38.3523 35.607C38.4423 35.2965 38.5376 34.9901 38.6386 34.6877ZM30.727 48.2866C30.7074 49.2073 30.6818 50.0557 30.655 50.877H33.2674C33.2601 50.0054 33.2527 49.1335 33.2527 48.2866H30.727ZM8.22699 54.8475C8.2392 55.2929 8.26193 56.0829 8.26242 56.0974C8.2939 56.5327 9.05008 57.438 10.789 57.438H24.0239C25.7572 57.438 26.5127 56.5417 26.5505 56.0974C26.5508 56.0974 26.5844 55.311 26.6059 54.8475H8.22699ZM37.3659 61.4032C37.3781 61.8527 37.4022 62.6459 37.4025 62.6593C37.4122 62.7693 37.4657 62.9058 37.5689 63.0519V63.0531C37.6204 63.1264 37.6844 63.2021 37.7608 63.2754C37.9141 63.4245 38.1183 63.5696 38.3776 63.6907C38.7666 63.8715 39.2791 64 39.9292 64H53.159C53.5923 64 53.9639 63.9438 54.2791 63.851C54.5942 63.7606 54.8523 63.6336 55.0574 63.4926C55.1599 63.4218 55.2495 63.3485 55.3261 63.2752C55.4791 63.1262 55.5823 62.974 55.6376 62.8396C55.6652 62.7737 55.6809 62.7101 55.6855 62.6539C55.6858 62.6539 55.7206 61.8673 55.7421 61.4029L37.3659 61.4032Z" fill="#FFCB2D"/>
</svg>
