<svg width="64" height="64" viewBox="0 0 64 64" fill="none" xmlns="http://www.w3.org/2000/svg">
<path d="M33.4041 0.000175476V0.0214306C31.7709 0.0214306 31.1837 0.427114 30.7806 0.916437C30.3775 1.40543 30.1292 2.24176 30.1006 3.27062C30.0432 5.32918 30.8609 7.6875 30.8609 7.6875C30.8953 7.77999 30.9226 7.87495 30.9425 7.97155C31.419 10.312 31.4891 13.1184 31.2073 15.8042C30.926 18.4864 30.3706 20.9995 29.0831 22.9061H29.0782C26.8836 26.1989 25.5844 30.7129 25.2067 35.5205C25.5965 36.4817 25.9257 37.4855 26.2192 38.5198C29.499 36.3308 33.4433 35.5775 37.1752 36.2312C37.9325 33.2701 39.0669 30.497 40.6633 28.1043C40.6666 28.0963 40.6699 28.0884 40.6732 28.0804C40.688 28.0559 40.7013 28.0294 40.7151 28.0072C40.1562 25.9005 39.4396 24.0433 38.4801 22.3898C35.943 18.0176 35.1652 12.1368 36.3813 7.81634C36.3882 7.79179 36.3956 7.76737 36.4035 7.74311C36.4035 7.74311 37.1098 5.40457 36.9549 3.34265C36.8775 2.31153 36.5925 1.45388 36.1386 0.932884C35.6847 0.41183 35.0372 0.000175476 33.4041 0.000175476ZM48.2405 7.36959C46.6074 7.36959 46.024 7.7756 45.6209 8.2646C45.2178 8.75392 44.9708 9.59122 44.9421 10.6201C44.8847 12.6781 45.6986 15.037 45.6986 15.037C45.7326 15.1295 45.7594 15.2244 45.7789 15.321C46.2554 17.6614 46.3255 20.4667 46.0438 23.1525C45.7621 25.838 45.2067 28.3606 43.9158 30.2681C42.5843 32.2673 41.5896 34.723 40.9205 37.4129C42.643 38.2129 44.2375 39.3501 45.5968 40.8262C50.3777 46.0173 50.7284 53.7146 46.8665 59.2789H53.3691C54.9306 59.2789 55.5501 58.4799 55.5735 58.1718C55.5801 58.0929 55.5915 58.0145 55.6078 57.937C55.6078 57.937 57.4547 48.2491 56.894 43.1388C56.273 37.4773 55.3148 33.1914 53.3218 29.7569C50.7847 25.3846 50.0069 19.5041 51.2231 15.1834C51.23 15.1597 51.2374 15.1361 51.2452 15.1127C51.2452 15.1127 51.9465 12.7755 51.7916 10.7135C51.7142 9.68241 51.4292 8.82857 50.9753 8.30751C50.5214 7.78646 49.8737 7.36959 48.2405 7.36959ZM15.2896 12.0945H15.2883C13.6551 12.0945 13.073 12.4964 12.6699 12.9858C12.2668 13.4748 12.0147 14.3161 11.986 15.345C11.9286 17.4028 12.7464 19.7568 12.7464 19.7568C12.7808 19.8497 12.8081 19.9451 12.8279 20.0421C13.3044 22.3828 13.3745 25.1878 13.0928 27.8736C12.8111 30.5591 12.2557 33.0805 10.9648 34.988C8.63573 38.4848 7.30195 43.3544 7.02448 48.4936C6.76422 53.3141 8.6648 62.638 8.6648 62.638C8.68402 62.7249 8.69717 62.8131 8.70421 62.9018C8.72639 63.2015 9.34326 64 10.9049 64H20.4167C21.9783 64 22.5991 63.2007 22.6225 62.8929C22.6286 62.8141 22.6397 62.7357 22.6555 62.6581C22.6555 62.6581 24.5024 52.9702 23.9417 47.8599C23.3206 42.1989 22.3624 37.9126 20.3695 34.4781C17.8325 30.1058 17.0559 24.225 18.272 19.9045C18.279 19.8817 18.2864 19.859 18.2942 19.8364C18.2942 19.8364 18.9955 17.4955 18.8406 15.4334C18.7632 14.4023 18.4782 13.5484 18.0243 13.0274C17.5704 12.5063 16.9232 12.0933 15.29 12.0933L15.2896 12.0945ZM35.0533 39.8769C32.2566 39.7524 29.4137 40.6878 27.1626 42.7033C27.4269 44.2095 27.6451 45.7812 27.8274 47.4421C28.2284 51.0977 27.7396 55.7215 27.2441 59.0681C31.4309 62.7579 37.7868 62.7804 42.0143 58.9431C46.5347 54.8395 46.8454 47.9334 42.7122 43.4455C40.6456 41.2014 37.874 40.0023 35.0533 39.8769ZM33.2538 41.4158C33.5675 41.4252 33.8761 41.4969 34.1613 41.6268C34.4465 41.7567 34.7027 41.9421 34.9145 42.1719C35.1225 42.3977 35.2838 42.6619 35.389 42.9496C35.4941 43.2372 35.5412 43.5426 35.5275 43.8483C35.5138 44.1541 35.4396 44.4541 35.3091 44.7313C35.1786 45.0085 34.9943 45.2575 34.7668 45.464C34.5393 45.6705 34.273 45.8305 33.9831 45.9347C33.6933 46.039 33.3856 46.0855 33.0776 46.0717C32.7697 46.0579 32.4675 45.9839 32.1883 45.8541C31.9091 45.7243 31.6584 45.5411 31.4506 45.3151C31.0309 44.859 30.8109 44.2561 30.8389 43.639C30.8668 43.0218 31.1405 42.441 31.5997 42.0242C32.0502 41.615 32.6437 41.3963 33.254 41.4145L33.2538 41.4158ZM39.5373 43.9126C39.8512 43.9219 40.16 43.9935 40.4455 44.1234C40.731 44.2533 40.9873 44.4387 41.1993 44.6688C41.4073 44.8946 41.5684 45.1589 41.6735 45.4466C41.7785 45.7343 41.8255 46.0398 41.8116 46.3455C41.7978 46.6512 41.7234 46.9512 41.5928 47.2284C41.4621 47.5056 41.2777 47.7545 41.0502 47.9609C40.5907 48.3775 39.9833 48.5959 39.3616 48.5679C38.74 48.54 38.1549 48.2681 37.7352 47.8119C37.5271 47.5862 37.3659 47.3219 37.2607 47.0343C37.1555 46.7466 37.1084 46.4412 37.1222 46.1355C37.1359 45.8298 37.2101 45.5298 37.3406 45.2526C37.4711 44.9753 37.6554 44.7264 37.8828 44.5198C38.3336 44.1111 38.927 43.8929 39.5371 43.9114L39.5373 43.9126ZM34.5884 48.8155C34.9023 48.8247 35.2111 48.8964 35.4966 49.0262C35.7821 49.1561 36.0384 49.3416 36.2504 49.5716C36.4584 49.7974 36.6195 50.0618 36.7246 50.3495C36.8296 50.6372 36.8766 50.9426 36.8628 51.2483C36.8489 51.554 36.7745 51.854 36.6439 52.1312C36.5132 52.4084 36.3288 52.6573 36.1013 52.8637C35.6418 53.2803 35.0344 53.4987 34.4128 53.4708C33.7911 53.4428 33.2061 53.1709 32.7863 52.7148C32.3665 52.2589 32.1462 51.6561 32.1739 51.039C32.2015 50.4219 32.475 49.8409 32.934 49.4239C33.3845 49.0147 33.9779 48.796 34.5883 48.8142L34.5884 48.8155Z" fill="#FFCB2D"/>
</svg>
