<svg width="64" height="65" viewBox="0 0 64 65" fill="none" xmlns="http://www.w3.org/2000/svg">
<path d="M33.4041 0.990601V1.01186C31.7709 1.01186 31.1837 1.41754 30.7806 1.90686C30.3775 2.39586 30.1292 3.23219 30.1006 4.26104C30.0432 6.31961 30.8609 8.67792 30.8609 8.67792C30.8953 8.77041 30.9226 8.86537 30.9425 8.96197C31.419 11.3024 31.4891 14.1089 31.2073 16.7947C30.926 19.4768 30.3706 21.99 29.0831 23.8965H29.0782C26.8836 27.1893 25.5844 31.7033 25.2067 36.5109C25.5965 37.4721 25.9257 38.476 26.2192 39.5102C29.499 37.3213 33.4433 36.5679 37.1752 37.2216C37.9325 34.2605 39.0669 31.4874 40.6633 29.0948C40.6666 29.0868 40.6699 29.0788 40.6732 29.0708C40.688 29.0463 40.7013 29.0198 40.7151 28.9976C40.1562 26.891 39.4396 25.0337 38.4801 23.3803C35.943 19.008 35.1652 13.1272 36.3813 8.80677C36.3882 8.78222 36.3956 8.7578 36.4035 8.73354C36.4035 8.73354 37.1098 6.395 36.9549 4.33308C36.8775 3.30195 36.5925 2.4443 36.1386 1.92331C35.6847 1.40226 35.0372 0.990601 33.4041 0.990601ZM48.2405 8.36002C46.6074 8.36002 46.024 8.76603 45.6209 9.25503C45.2178 9.74435 44.9708 10.5816 44.9421 11.6105C44.8847 13.6685 45.6986 16.0274 45.6986 16.0274C45.7326 16.1199 45.7594 16.2149 45.7789 16.3114C46.2554 18.6518 46.3255 21.4571 46.0438 24.1429C45.7621 26.8284 45.2067 29.351 43.9158 31.2586C42.5843 33.2577 41.5896 35.7134 40.9205 38.4033C42.643 39.2033 44.2375 40.3405 45.5968 41.8167C50.3777 47.0077 50.7284 54.705 46.8665 60.2693H53.3691C54.9306 60.2693 55.5501 59.4703 55.5735 59.1623C55.5801 59.0834 55.5915 59.005 55.6078 58.9275C55.6078 58.9275 57.4547 49.2395 56.894 44.1292C56.273 38.4677 55.3148 34.1818 53.3218 30.7473C50.7847 26.3751 50.0069 20.4945 51.2231 16.1738C51.23 16.1501 51.2374 16.1266 51.2452 16.1031C51.2452 16.1031 51.9465 13.7659 51.7916 11.704C51.7142 10.6728 51.4292 9.81899 50.9753 9.29794C50.5214 8.77688 49.8737 8.36002 48.2405 8.36002ZM15.2896 13.0849H15.2883C13.6551 13.0849 13.073 13.4869 12.6699 13.9762C12.2668 14.4652 12.0147 15.3065 11.986 16.3354C11.9286 18.3932 12.7464 20.7472 12.7464 20.7472C12.7808 20.8401 12.8081 20.9355 12.8279 21.0325C13.3044 23.3732 13.3745 26.1782 13.0928 28.864C12.8111 31.5495 12.2557 34.0709 10.9648 35.9784C8.63573 39.4752 7.30195 44.3448 7.02448 49.484C6.76422 54.3045 8.6648 63.6284 8.6648 63.6284C8.68402 63.7153 8.69717 63.8035 8.70421 63.8922C8.72639 64.1919 9.34326 64.9904 10.9049 64.9904H20.4167C21.9783 64.9904 22.5991 64.1911 22.6225 63.8834C22.6286 63.8045 22.6397 63.7261 22.6555 63.6486C22.6555 63.6486 24.5024 53.9606 23.9417 48.8503C23.3206 43.1893 22.3624 38.903 20.3695 35.4685C17.8325 31.0962 17.0559 25.2155 18.272 20.8949C18.279 20.8721 18.2864 20.8494 18.2942 20.8268C18.2942 20.8268 18.9955 18.4859 18.8406 16.4238C18.7632 15.3927 18.4782 14.5389 18.0243 14.0178C17.5704 13.4968 16.9232 13.0837 15.29 13.0837L15.2896 13.0849ZM35.0533 40.8674C32.2566 40.7428 29.4137 41.6782 27.1626 43.6938C27.4269 45.1999 27.6451 46.7717 27.8274 48.4325C28.2284 52.0881 27.7396 56.7119 27.2441 60.0585C31.4309 63.7483 37.7868 63.7708 42.0143 59.9335C46.5347 55.83 46.8454 48.9238 42.7122 44.436C40.6456 42.1919 37.874 40.9927 35.0533 40.8674ZM33.2538 42.4062C33.5675 42.4156 33.8761 42.4873 34.1613 42.6172C34.4465 42.7471 34.7027 42.9325 34.9145 43.1624C35.1225 43.3881 35.2838 43.6524 35.389 43.94C35.4941 44.2277 35.5412 44.5331 35.5275 44.8388C35.5138 45.1445 35.4396 45.4445 35.3091 45.7217C35.1786 45.999 34.9943 46.2479 34.7668 46.4545C34.5393 46.6609 34.273 46.8209 33.9831 46.9252C33.6933 47.0294 33.3856 47.076 33.0776 47.0621C32.7697 47.0483 32.4675 46.9744 32.1883 46.8445C31.9091 46.7147 31.6584 46.5315 31.4506 46.3055C31.0309 45.8494 30.8109 45.2465 30.8389 44.6294C30.8668 44.0123 31.1405 43.4314 31.5997 43.0146C32.0502 42.6054 32.6437 42.3867 33.254 42.4049L33.2538 42.4062ZM39.5373 44.9031C39.8512 44.9123 40.16 44.984 40.4455 45.1138C40.731 45.2437 40.9873 45.4292 41.1993 45.6592C41.4073 45.885 41.5684 46.1494 41.6735 46.4371C41.7785 46.7248 41.8255 47.0302 41.8116 47.3359C41.7978 47.6417 41.7234 47.9417 41.5928 48.2188C41.4621 48.496 41.2777 48.7449 41.0502 48.9514C40.5907 49.368 39.9833 49.5863 39.3616 49.5584C38.74 49.5304 38.1549 49.2585 37.7352 48.8024C37.5271 48.5766 37.3659 48.3124 37.2607 48.0247C37.1555 47.7371 37.1084 47.4317 37.1222 47.126C37.1359 46.8202 37.2101 46.5202 37.3406 46.243C37.4711 45.9658 37.6554 45.7168 37.8828 45.5103C38.3336 45.1015 38.927 44.8833 39.5371 44.9018L39.5373 44.9031ZM34.5884 49.8059C34.9023 49.8151 35.2111 49.8868 35.4966 50.0167C35.7821 50.1466 36.0384 50.332 36.2504 50.562C36.4584 50.7879 36.6195 51.0522 36.7246 51.3399C36.8296 51.6276 36.8766 51.933 36.8628 52.2387C36.8489 52.5444 36.7745 52.8445 36.6439 53.1216C36.5132 53.3988 36.3288 53.6477 36.1013 53.8541C35.6418 54.2708 35.0344 54.4891 34.4128 54.4612C33.7911 54.4333 33.2061 54.1613 32.7863 53.7052C32.3665 53.2493 32.1462 52.6465 32.1739 52.0294C32.2015 51.4123 32.475 50.8314 32.934 50.4143C33.3845 50.0051 33.9779 49.7864 34.5883 49.8046L34.5884 49.8059Z" fill="#FFCB2D"/>
</svg>
