<svg width="64" height="64" viewBox="0 0 64 64" fill="none" xmlns="http://www.w3.org/2000/svg">
<path d="M16.2395 0.00350298V0.00985901C14.2935 0.0486555 12.6906 0.435314 11.8619 0.88728C11.0358 1.33776 11.0121 1.39968 11.0879 1.9137C11.1432 2.28164 11.2009 2.49185 11.2384 2.56515C11.2762 2.63844 11.2083 2.62655 11.4578 2.72423C11.7077 2.82374 11.9343 2.97323 12.1233 3.16335C12.3123 3.35348 12.4596 3.58016 12.556 3.82921C12.6525 4.07826 12.696 4.34434 12.6839 4.6108C12.6718 4.87727 12.6042 5.13839 12.4855 5.37784C11.0206 8.32376 10.6294 12.666 10.6493 17.7858C10.6511 18.1701 10.5375 18.5462 10.3229 18.8665C7.13963 23.6135 5.48445 28.5517 5.12162 35.2374C4.76017 41.8998 5.31927 59.1412 5.32174 59.2453C5.38219 60.0046 6.50221 61.1782 8.73528 61.1782H12.2521C12.0478 59.8758 12.1744 58.7965 12.1169 57.8919C12.0917 57.4873 12.1951 57.0851 12.4127 56.7417C12.198 56.5805 11.9918 56.4083 11.8032 56.2102C10.7609 55.1155 10.5141 53.666 10.5141 52.3911C10.5141 51.1706 10.6567 49.7782 11.6349 48.6402C11.7837 48.4667 11.9464 48.3121 12.1156 48.1668C12.1147 48.1424 12.1143 48.118 12.1144 48.0936C12.2701 43.3537 13.7847 38.7557 17.6204 35.4912C20.0569 33.4177 23.3243 31.9344 27.5652 31.1255C26.6826 25.6317 25.4394 22.3459 23.0958 18.8564C22.8749 18.5269 22.761 18.1383 22.7694 17.7429C22.7703 17.6989 22.7687 17.6554 22.7694 17.609L22.7018 15.3479C22.4472 11.0906 22.1192 7.774 20.9243 5.38418C20.8097 5.15511 20.742 4.90589 20.7251 4.65084C20.7082 4.39579 20.7424 4.13994 20.8257 3.89802C20.909 3.65609 21.0398 3.43285 21.2105 3.24114C21.3813 3.04942 21.5887 2.89302 21.8207 2.78092C21.8207 2.78092 22.577 2.54389 22.4634 1.69516C22.4584 1.6538 22.213 1.18243 21.0747 0.726776C19.9365 0.271192 18.1748 -0.0359745 16.2394 0.00339115L16.2395 0.00350298ZM35.8626 34.2995C32.85 34.2995 30.2829 34.5441 28.0982 34.9787C28.0958 34.9787 28.0908 34.9787 28.0884 34.9787C27.6689 35.0624 27.2672 35.1541 26.8757 35.2515C26.8044 35.2688 26.7355 35.2877 26.6652 35.3057C26.3431 35.3889 26.0301 35.4762 25.7267 35.5683C25.6463 35.5929 25.5661 35.6174 25.4871 35.6428C25.1782 35.7406 24.8789 35.8428 24.5894 35.9496C24.5433 35.9665 24.4949 35.9826 24.4492 36.0001C23.7767 36.2541 23.1562 36.5317 22.585 36.8308C22.5122 36.8689 22.4431 36.9082 22.3721 36.9469C22.171 37.0564 21.9754 37.1681 21.7868 37.2828C21.7085 37.33 21.6308 37.3783 21.5546 37.4267C21.366 37.5466 21.1848 37.6704 21.0088 37.7953C20.9483 37.838 20.8854 37.8794 20.8265 37.9229C20.5997 38.0901 20.3807 38.2602 20.1749 38.4355C17.83 40.4312 16.8397 43.1368 16.4107 46.2188H20.6046C21.6085 46.1697 22.7414 46.1373 23.9799 46.1127C24.2356 46.1064 24.5334 46.1044 24.7998 46.0998C25.8353 46.0829 26.9286 46.072 28.1304 46.0642C30.4647 46.0493 32.9943 46.0454 36.0784 46.0454C44.2392 46.0454 49.5956 45.9911 53.3106 46.2184H55.3266C54.897 43.1361 53.9063 40.4308 51.5599 38.435C48.6901 35.9941 43.8225 34.2955 35.8629 34.2965L35.8626 34.2995ZM36.078 49.9256C25.2963 49.9256 19.3388 49.9988 16.5314 50.4975C15.1277 50.7465 14.697 51.0694 14.6199 51.1591C14.543 51.2494 14.43 51.4804 14.43 52.3963C14.43 53.258 14.5267 53.4239 14.653 53.5566C14.7796 53.6885 15.3344 54.0397 16.794 54.2913C19.7131 54.7948 25.6594 54.8657 36.0779 54.8657C46.4925 54.8657 52.4955 54.7681 55.497 54.2484C56.9977 53.9882 57.6182 53.6184 57.7705 53.4669C57.9228 53.3154 58 53.1998 58 52.3963C58 51.3956 57.8739 51.1233 57.7846 51.0214C57.6953 50.9188 57.2381 50.5938 55.7967 50.3637C54.9472 50.2293 53.7838 50.1388 52.3449 50.0733C51.0196 51.1214 48.2797 53.154 46.9357 53.1664C45.7056 53.1664 43.7194 51.2064 42.5594 49.9293H36.0779L36.078 49.9256ZM16.0966 59.7138C16.104 59.9825 16.0977 60.4549 16.1296 60.643C16.2323 61.2479 16.2523 61.4264 17.0388 61.9118C18.6117 62.883 23.8627 64 35.8624 64C47.8621 64 53.1181 62.8837 54.6936 61.9118C55.4813 61.4259 55.5034 61.2477 55.6066 60.643C55.6387 60.4549 55.6343 59.9825 55.6397 59.7138H16.0966Z" fill="#FFCB2D"/>
</svg>
