<svg width="133" height="80" viewBox="0 0 133 80" fill="none" xmlns="http://www.w3.org/2000/svg">
<path d="M91.063 0.8125V0.861528C76.0973 0.861528 67.0056 3.98835 61.6749 8.43326C61.5877 8.50678 61.5181 8.5852 61.4325 8.65873C65.0749 9.69594 68.2649 11.0474 71.0436 12.6865C71.3534 11.8149 71.8851 11.0678 72.5671 10.5453C73.2492 10.0229 74.049 9.75011 74.8594 9.76359C75.9123 9.78307 76.9066 10.2841 77.6235 11.1567C78.3405 12.0292 78.7216 13.2018 78.683 14.4168C78.6632 15.0212 78.54 15.6177 78.3206 16.1719C78.1011 16.7261 77.7896 17.2271 77.4041 17.6461C78.7183 19.0044 79.8647 20.4533 80.837 21.9827C84.2345 21.9827 87.3401 21.9336 91.4692 21.9336C106.918 21.9336 117.026 21.8307 124.058 22.2621H127.392C126.55 16.7819 124.731 11.9669 120.461 8.40874C115.127 3.96286 106.028 0.835539 91.0628 0.8375L91.063 0.8125ZM90.365 5.88091C90.9087 5.89901 91.4312 6.03236 91.9017 6.27306C92.3638 6.5089 92.7667 6.84359 93.0872 7.25797C93.4078 7.67235 93.6397 8.15831 93.7699 8.68808C93.9 9.21786 93.9257 9.78107 93.8456 10.3455C93.7655 10.91 93.5811 11.4646 93.303 11.9777C93.0249 12.4907 92.6586 12.9521 92.225 13.3356C91.7914 13.7191 91.2989 14.0173 90.7757 14.2129C90.2526 14.4086 89.7089 14.498 89.1759 14.4761C88.6429 14.4541 88.1309 14.3212 87.6692 14.085C86.7372 13.6081 86.0663 12.7396 85.804 11.6704C85.5417 10.6012 85.7095 9.41884 86.2705 8.38326C86.6863 7.6159 87.2963 6.96953 88.0245 6.52485C88.7527 6.08018 89.5667 5.85689 90.365 5.88287V5.88091ZM113.692 8.89549V8.89794C114.235 8.91456 114.758 9.04623 115.229 9.28517C115.691 9.52128 116.093 9.85613 116.413 10.2706C116.734 10.685 116.965 11.171 117.095 11.7007C117.225 12.2304 117.251 12.7935 117.17 13.3577C117.09 13.922 116.906 14.4764 116.628 14.9893C116.066 16.0247 115.158 16.8283 114.102 17.2236C113.046 17.6188 111.929 17.5733 110.996 17.0971C110.064 16.6207 109.392 15.7523 109.129 14.683C108.866 13.6136 109.034 12.4309 109.595 11.3949C110.011 10.6272 110.622 9.98059 111.35 9.53597C112.079 9.09136 112.894 8.86842 113.692 8.895V8.89549ZM40.6008 13.9031C25.6351 13.9031 16.5435 17.0319 11.2127 21.4773C7.98974 24.1644 6.16734 27.5726 5.1049 31.4396C12.1665 30.6391 22.9949 30.7783 41.5307 30.7783C46.4398 30.7783 50.6718 30.7783 54.5617 30.7783C54.5516 30.7783 54.5415 30.7783 54.5264 30.7783C59.1119 30.7783 63.0033 30.847 66.4114 30.9352C66.7798 30.9352 67.1623 30.9352 67.5184 30.9842C70.8737 31.0872 73.7226 31.2391 76.1188 31.4808C76.1176 31.4764 76.1148 31.4808 76.1138 31.4808C76.1186 31.4813 76.1239 31.4803 76.1289 31.4808C75.9706 30.9019 75.7892 30.3362 75.5949 29.7784C75.594 29.7784 75.5933 29.7784 75.5924 29.7784C74.4819 26.5957 72.7545 23.7728 70.0001 21.4778C69.6423 21.1788 69.2649 20.8871 68.8724 20.6009C68.7327 20.4979 68.5815 20.4048 68.4374 20.3018C68.1647 20.1107 67.888 19.9244 67.5988 19.7421C67.4546 19.6489 67.3044 19.5656 67.1557 19.4725C66.8432 19.2813 66.5229 19.095 66.1919 18.9151C66.0443 18.8367 65.8951 18.7534 65.7439 18.675C65.382 18.4838 65.0079 18.3024 64.6239 18.1201C64.4898 18.0564 64.3568 17.9926 64.2202 17.9338C63.7519 17.723 63.2677 17.5123 62.7667 17.3157C62.7264 17.3157 62.6912 17.2667 62.6524 17.2667C62.6423 17.2623 62.6272 17.2667 62.6171 17.2667C60.8258 16.5672 58.8225 15.9599 56.5925 15.4604C56.5909 15.4604 56.589 15.4609 56.5875 15.4604C52.1985 14.4786 46.9309 13.9149 40.6028 13.9154L40.6008 13.9031ZM42.5178 15.9623C43.3167 15.9361 44.1314 16.1595 44.8601 16.6046C45.5889 17.0498 46.1992 17.697 46.6149 18.4652C47.1759 19.5012 47.3434 20.6839 47.0806 21.7533C46.8178 22.8226 46.1463 23.691 45.2136 24.1674C44.281 24.6433 43.1638 24.6884 42.1078 24.2927C41.0518 23.897 40.1435 23.0929 39.5824 22.0572C39.0215 21.0216 38.8536 19.8392 39.1159 18.7701C39.3782 17.7009 40.0491 16.8324 40.9811 16.3555C41.4516 16.1148 41.9741 15.9814 42.5178 15.9633V15.9623ZM19.1933 18.9793V18.9818C19.9916 18.9558 20.8056 19.1791 21.5338 19.6238C22.262 20.0685 22.8721 20.7148 23.2878 21.4822C23.8488 22.5178 24.0166 23.7001 23.7543 24.7693C23.492 25.8385 22.8211 26.707 21.8891 27.1839C21.4274 27.4202 20.9154 27.5531 20.3824 27.575C19.8494 27.597 19.3057 27.5076 18.7825 27.3119C18.2594 27.1162 17.7669 26.8181 17.3333 26.4345C16.8996 26.051 16.5334 25.5896 16.2553 25.0766C15.9772 24.5635 15.7928 24.0089 15.7127 23.4445C15.6326 22.88 15.6584 22.3168 15.7885 21.787C15.9186 21.2573 16.1506 20.7713 16.4711 20.3569C16.7917 19.9425 17.1945 19.6078 17.6566 19.372C18.1271 19.1313 18.6496 18.998 19.1933 18.9799V18.9793ZM58.0259 19.8229C58.6913 19.811 59.3523 19.9922 59.948 20.3499C60.1857 20.4927 60.4108 20.6623 60.62 20.8562C60.9335 21.147 61.2084 21.4896 61.4353 21.8724C61.5102 21.9992 61.5796 22.13 61.6434 22.2645C61.949 22.9042 62.1204 23.6151 62.1435 24.3389C62.1821 25.5544 61.8007 26.7275 61.0831 27.6001C60.3656 28.4728 59.3706 28.9735 58.3172 28.9922C57.264 29.0106 56.2386 28.5458 55.4664 27.6998C54.6942 26.8537 54.2384 25.6958 54.1993 24.4806C54.1692 23.5462 54.3873 22.6297 54.8244 21.8537C54.8294 21.8374 54.8344 21.821 54.8396 21.8047C54.9055 21.6899 54.9759 21.5786 55.0507 21.4714C55.0755 21.4366 55.1007 21.4023 55.1263 21.3685C55.1855 21.2858 55.2472 21.2057 55.3113 21.1283C55.3455 21.0916 55.3803 21.0557 55.4156 21.0204C55.4746 20.9545 55.5355 20.8907 55.5981 20.8293C55.6449 20.7855 55.6926 20.743 55.7412 20.7018C55.7973 20.6493 55.8546 20.5987 55.9131 20.5499C55.9862 20.4964 56.0608 20.4457 56.1369 20.3979C56.1722 20.3728 56.2078 20.3483 56.2437 20.3244C56.3046 20.2882 56.3663 20.2539 56.4287 20.2215C56.4896 20.1869 56.5513 20.1542 56.6137 20.1234C56.6925 20.0878 56.7723 20.0551 56.8531 20.0254C56.8902 20.0084 56.9275 19.9921 56.965 19.9764C56.9659 19.9764 56.9667 19.9764 56.9676 19.9764C57.0451 19.9524 57.1233 19.9311 57.202 19.9127C57.2573 19.8949 57.3129 19.8786 57.3688 19.8636C57.4249 19.8458 57.4814 19.8295 57.5382 19.8146C57.6063 19.7962 57.6749 19.7798 57.7438 19.7656C57.8375 19.7618 57.9313 19.7618 58.0251 19.7656L58.0259 19.8229ZM91.4693 29.6916H84.2884C84.6543 30.9617 84.9329 32.2592 85.1505 33.5699C86.1801 34.1066 87.0907 34.7787 87.8594 35.6546C88.5585 36.4511 89.0363 37.3114 89.3648 38.1927H91.4693C111.108 38.1927 122.431 38.0016 128.033 37.0501C130.834 36.5747 131.94 35.9085 132.154 35.7002C132.368 35.4894 132.5 35.3767 132.5 33.9297C132.5 32.1048 132.264 31.6896 132.169 31.5837C132.075 31.4808 131.293 30.8945 128.606 30.4744C126.952 30.2146 124.646 30.048 121.764 29.9274C119.158 31.9229 114.366 35.3311 111.944 35.3532C109.726 35.3532 106.191 32.0307 103.972 29.674L91.4693 29.6916ZM41.5307 38.5447C36.8629 38.5447 32.7854 38.5452 29.0232 38.5447C26.8032 40.9019 23.2709 44.2439 21.053 44.2233C18.632 44.2233 13.8399 40.7936 11.2335 38.7976C8.35132 38.9152 6.04515 39.0868 4.39119 39.3451C1.70427 39.7667 0.925185 40.349 0.83063 40.4544C0.736377 40.5573 0.5 40.9706 0.5 42.795C0.5 44.243 0.629569 44.3567 0.843781 44.5655C1.05799 44.7763 2.15528 45.4449 4.95646 45.9208C10.5588 46.8727 21.892 47.058 41.5308 47.058C61.1775 47.058 72.397 46.9208 77.842 46.0017C80.5645 45.5409 81.534 44.9081 81.6995 44.7375C81.8648 44.566 82.0382 44.3552 82.0382 42.795C82.0382 41.1264 81.8356 40.7916 81.762 40.7078C81.6884 40.6245 80.9524 40.0397 78.3369 39.5853C73.106 38.676 61.8624 38.5368 41.5308 38.5368L41.5307 38.5447ZM128.031 47.7776H89.0757C88.7571 48.4702 88.3365 49.131 87.7994 49.7457C89.216 51.3583 89.7615 53.2377 89.9534 55.0832C90.3431 55.0841 90.6658 55.0832 91.063 55.0832C113.677 55.0832 123.566 52.9931 126.408 51.2755C127.829 50.4167 127.802 50.1897 127.986 49.13C128.032 48.8653 128.022 48.1305 128.032 47.7649L128.031 47.7776ZM78.5451 53.7509C78.5441 53.7504 78.5435 53.7509 78.5425 53.7509V53.7533C78.3964 53.7533 78.2185 53.8023 78.0688 53.8121C77.1537 53.9445 76.185 54.0621 75.1281 54.1602C74.6946 54.2092 74.2111 54.2288 73.7529 54.268C72.7086 54.3513 71.6676 54.4298 70.4841 54.4886C67.8629 56.4571 63.7437 59.2766 61.4824 59.2967C59.619 59.2967 56.8304 56.9615 54.6713 54.8131H41.5309C23.1824 54.8131 12.2638 54.7543 5.11813 53.7719C4.81924 53.821 4.46582 53.8504 4.19868 53.8945C1.58328 54.3504 0.849995 54.9327 0.776255 55.0165C0.703171 55.0998 0.5 55.4332 0.5 57.1037C0.5 58.6639 0.665309 58.8761 0.83063 59.0467C0.995951 59.2183 1.97347 59.8511 4.69597 60.3109C10.141 61.2309 21.3605 61.3667 41.0072 61.3667C60.6459 61.3667 71.9713 61.1804 77.5736 60.2295C80.3748 59.754 81.4774 59.083 81.6915 58.8742C81.9058 58.6634 82.0378 58.5507 82.0378 57.1037C82.0378 55.2792 81.8014 54.869 81.7072 54.7631C81.6184 54.665 80.8611 54.1464 78.5451 53.7352V53.7509ZM3.62541 68.0498C3.63045 68.8257 3.65067 69.5713 3.7167 70.0987C3.95863 71.9962 4.30662 72.9535 5.73524 74.1289C8.59257 76.4793 18.0601 79.1875 40.6009 79.1875C63.1416 79.1875 72.6152 76.4808 75.477 74.1289C76.9078 72.953 77.2603 71.9883 77.5033 70.0913C77.5684 69.5786 77.585 68.859 77.592 68.1081C70.4506 69.1154 59.5051 69.1742 41.0073 69.1742C21.6111 69.1742 10.6249 69.1747 3.62564 68.0498H3.62541Z" fill="#FFCB2D"/>
</svg>
