<svg width="64" height="64" viewBox="0 0 64 64" fill="none" xmlns="http://www.w3.org/2000/svg">
<path d="M43.9093 13V13.0238C36.6532 13.0238 32.2451 14.5398 29.6605 16.6949C29.6183 16.7306 29.5846 16.7686 29.543 16.8042C31.309 17.3071 32.8557 17.9624 34.2029 18.7571C34.3532 18.3345 34.6109 17.9723 34.9416 17.719C35.2723 17.4656 35.6601 17.3334 36.053 17.3399C36.5636 17.3494 37.0456 17.5923 37.3932 18.0154C37.7409 18.4384 37.9256 19.007 37.9069 19.596C37.8973 19.8891 37.8376 20.1783 37.7312 20.447C37.6248 20.7157 37.4738 20.9586 37.2868 21.1617C37.924 21.8203 38.4799 22.5228 38.9513 23.2643C40.5985 23.2643 42.1043 23.2406 44.1063 23.2406C51.5967 23.2406 56.4974 23.1906 59.9071 23.3998H61.5235C61.1154 20.7427 60.2333 18.4082 58.163 16.683C55.5765 14.5274 51.1653 13.0112 43.9092 13.0121L43.9093 13ZM43.5709 15.4574C43.8345 15.4662 44.0879 15.5308 44.316 15.6475C44.54 15.7619 44.7354 15.9242 44.8908 16.1251C45.0462 16.326 45.1587 16.5616 45.2218 16.8185C45.2849 17.0753 45.2973 17.3484 45.2585 17.6221C45.2196 17.8957 45.1302 18.1647 44.9954 18.4134C44.8606 18.6621 44.683 18.8859 44.4727 19.0718C44.2625 19.2578 44.0237 19.4023 43.7701 19.4972C43.5164 19.5921 43.2528 19.6354 42.9944 19.6248C42.7359 19.6141 42.4877 19.5497 42.2638 19.4351C41.812 19.2039 41.4867 18.7828 41.3595 18.2644C41.2323 17.746 41.3137 17.1728 41.5857 16.6707C41.7873 16.2986 42.0831 15.9852 42.4361 15.7696C42.7892 15.554 43.1839 15.4458 43.5709 15.4584V15.4574ZM54.881 16.919V16.9202C55.1445 16.9283 55.3978 16.9921 55.6261 17.108C55.85 17.2224 56.0452 17.3848 56.2004 17.5857C56.3557 17.7867 56.468 18.0223 56.531 18.2791C56.594 18.536 56.6063 18.8089 56.5674 19.0825C56.5285 19.3561 56.4391 19.6249 56.3043 19.8736C56.0321 20.3756 55.5915 20.7653 55.0795 20.9569C54.5676 21.1485 54.026 21.1265 53.574 20.8956C53.1218 20.6646 52.7961 20.2436 52.6687 19.7251C52.5413 19.2066 52.6225 18.6331 52.8945 18.1309C53.0962 17.7586 53.3923 17.4451 53.7456 17.2296C54.0989 17.014 54.4938 16.9059 54.881 16.9188V16.919ZM19.4428 19.347C12.1867 19.347 7.77866 20.8639 5.19406 23.0193C3.63139 24.3221 2.7478 25.9746 2.23268 27.8495C5.65647 27.4614 10.9066 27.5289 19.8937 27.5289C22.2738 27.5289 24.3257 27.5289 26.2117 27.5289C26.2068 27.5289 26.2019 27.5289 26.1946 27.5289C28.4179 27.5289 30.3046 27.5622 31.957 27.6049C32.1357 27.6049 32.3211 27.6049 32.4938 27.6287C34.1206 27.6786 35.5019 27.7523 36.6637 27.8695C36.6631 27.8673 36.6617 27.8695 36.6612 27.8695C36.6636 27.8697 36.6661 27.8692 36.6686 27.8695C36.5918 27.5888 36.5038 27.3145 36.4097 27.0441C36.4092 27.0441 36.4089 27.0441 36.4084 27.0441C35.87 25.5009 35.0325 24.1323 33.697 23.0195C33.5235 22.8746 33.3406 22.7332 33.1502 22.5944C33.0825 22.5444 33.0092 22.4993 32.9393 22.4494C32.8071 22.3567 32.673 22.2664 32.5327 22.178C32.4628 22.1328 32.39 22.0924 32.3179 22.0473C32.1664 21.9546 32.0111 21.8643 31.8506 21.777C31.779 21.739 31.7067 21.6986 31.6334 21.6606C31.4579 21.5679 31.2766 21.48 31.0904 21.3916C31.0253 21.3607 30.9608 21.3298 30.8946 21.3012C30.6676 21.199 30.4328 21.0969 30.1899 21.0016C30.1704 21.0016 30.1533 20.9778 30.1345 20.9778C30.1296 20.9756 30.1223 20.9778 30.1174 20.9778C29.2489 20.6386 28.2776 20.3442 27.1964 20.102C27.1956 20.102 27.1947 20.1022 27.194 20.102C25.0659 19.626 22.512 19.3527 19.4438 19.3529L19.4428 19.347ZM20.3723 20.3454C20.7596 20.3326 21.1546 20.441 21.5079 20.6568C21.8613 20.8726 22.1572 21.1864 22.3587 21.5589C22.6307 22.0612 22.712 22.6346 22.5846 23.1531C22.4571 23.6716 22.1315 24.0926 21.6793 24.3236C21.2271 24.5544 20.6855 24.5762 20.1735 24.3843C19.6615 24.1925 19.2211 23.8026 18.9491 23.3004C18.6771 22.7983 18.5957 22.2251 18.7229 21.7067C18.85 21.1883 19.1753 20.7672 19.6272 20.536C19.8553 20.4193 20.1087 20.3546 20.3723 20.3458V20.3454ZM9.06342 21.8082V21.8094C9.45045 21.7968 9.84514 21.905 10.1982 22.1206C10.5513 22.3362 10.8471 22.6496 11.0486 23.0217C11.3206 23.5238 11.402 24.097 11.2748 24.6154C11.1476 25.1338 10.8224 25.5549 10.3705 25.7861C10.1466 25.9007 9.89838 25.9651 9.63995 25.9758C9.38151 25.9864 9.11792 25.9431 8.86426 25.8482C8.6106 25.7533 8.37183 25.6088 8.16159 25.4228C7.95134 25.2369 7.77376 25.0131 7.63894 24.7644C7.50409 24.5156 7.41467 24.2467 7.37583 23.9731C7.33699 23.6994 7.3495 23.4263 7.4126 23.1695C7.4757 22.9126 7.58816 22.677 7.74358 22.4761C7.89899 22.2752 8.09429 22.1129 8.31835 21.9985C8.54645 21.8818 8.79981 21.8172 9.06342 21.8084V21.8082ZM27.8913 22.2172C28.214 22.2114 28.5344 22.2993 28.8233 22.4727C28.9385 22.5419 29.0476 22.6242 29.1491 22.7182C29.3011 22.8592 29.4344 23.0252 29.5444 23.2108C29.5807 23.2723 29.6144 23.3358 29.6453 23.401C29.7934 23.7111 29.8765 24.0558 29.8877 24.4068C29.9065 24.9961 29.7215 25.5648 29.3736 25.9879C29.0257 26.411 28.5433 26.6538 28.0326 26.6629C27.5219 26.6718 27.0248 26.4464 26.6504 26.0362C26.276 25.6261 26.055 25.0646 26.036 24.4754C26.0214 24.0224 26.1272 23.578 26.3391 23.2018C26.3415 23.1939 26.344 23.186 26.3464 23.178C26.3784 23.1224 26.4126 23.0684 26.4488 23.0164C26.4608 22.9996 26.4731 22.9829 26.4855 22.9665C26.5142 22.9265 26.5441 22.8876 26.5752 22.8501C26.5918 22.8323 26.6086 22.8149 26.6257 22.7978C26.6544 22.7658 26.6839 22.7349 26.7142 22.7051C26.7369 22.6839 26.7601 22.6633 26.7836 22.6433C26.8108 22.6179 26.8386 22.5933 26.867 22.5696C26.9024 22.5437 26.9386 22.5191 26.9755 22.496C26.9926 22.4838 27.0098 22.4719 27.0273 22.4603C27.0568 22.4428 27.0867 22.4261 27.117 22.4104C27.1465 22.3937 27.1764 22.3778 27.2066 22.3629C27.2448 22.3456 27.2836 22.3297 27.3227 22.3153C27.3407 22.3071 27.3588 22.2992 27.377 22.2916C27.3774 22.2916 27.3778 22.2916 27.3782 22.2916C27.4158 22.2799 27.4537 22.2696 27.4919 22.2607C27.5187 22.2521 27.5457 22.2442 27.5728 22.2369C27.6 22.2283 27.6274 22.2204 27.6549 22.2131C27.6879 22.2042 27.7212 22.1963 27.7546 22.1894C27.8 22.1875 27.8455 22.1875 27.891 22.1894L27.8913 22.2172ZM44.1063 27.002H40.6247C40.8021 27.6178 40.9372 28.2469 41.0427 28.8824C41.5419 29.1426 41.9834 29.4684 42.3561 29.8931C42.695 30.2793 42.9267 30.6964 43.086 31.1238H44.1063C53.6281 31.1238 59.118 31.0311 61.8343 30.5698C63.1924 30.3392 63.7283 30.0163 63.8321 29.9152C63.936 29.8131 64 29.7584 64 29.0568C64 28.172 63.8854 27.9707 63.8397 27.9194C63.794 27.8695 63.4149 27.5852 62.1121 27.3815C61.3102 27.2556 60.1919 27.1748 58.7946 27.1163C57.531 28.0838 55.2077 29.7363 54.0336 29.747C52.9578 29.747 51.2442 28.1361 50.168 26.9934L44.1063 27.002ZM19.8937 31.2944C17.6305 31.2944 15.6535 31.2946 13.8294 31.2944C12.7531 32.4373 11.0404 34.0577 9.96511 34.0477C8.79129 34.0477 6.46782 32.3848 5.20412 31.417C3.8067 31.4741 2.68856 31.5572 1.88664 31.6825C0.583886 31.8869 0.20615 32.1692 0.160305 32.2203C0.114607 32.2702 0 32.4706 0 33.3551C0 34.0572 0.0628215 34.1123 0.166682 34.2136C0.270542 34.3158 0.80256 34.6399 2.16071 34.8707C4.87698 35.3322 10.3719 35.4221 19.8937 35.4221C29.4194 35.4221 34.8592 35.3555 37.4991 34.9099C38.8191 34.6865 39.2892 34.3797 39.3694 34.297C39.4496 34.2138 39.5337 34.1116 39.5337 33.3551C39.5337 32.5461 39.4354 32.3838 39.3998 32.3432C39.3641 32.3028 39.0072 32.0193 37.7391 31.7989C35.2029 31.3581 29.7515 31.2906 19.8937 31.2906L19.8937 31.2944ZM61.833 35.771H42.9458C42.7913 36.1068 42.5874 36.4271 42.327 36.7252C43.0138 37.5071 43.2783 38.4183 43.3714 39.313C43.5603 39.3135 43.7167 39.313 43.9093 39.313C54.8735 39.313 59.6685 38.2997 61.0463 37.4669C61.7351 37.0505 61.7221 36.9405 61.8115 36.4267C61.8335 36.2983 61.8287 35.9421 61.8335 35.7648L61.833 35.771ZM37.8401 38.6671C37.8396 38.6669 37.8393 38.6671 37.8388 38.6671V38.6683C37.7679 38.6683 37.6817 38.692 37.6091 38.6968C37.1654 38.761 36.6958 38.818 36.1833 38.8655C35.9732 38.8893 35.7387 38.8988 35.5166 38.9178C35.0102 38.9582 34.5055 38.9962 33.9317 39.0248C32.6608 39.9792 30.6636 41.3462 29.5672 41.356C28.6637 41.356 27.3117 40.2238 26.2649 39.1821H19.8938C10.9975 39.1821 5.70367 39.1536 2.23909 38.6773C2.09418 38.7011 1.92282 38.7153 1.7933 38.7367C0.525229 38.9577 0.169694 39.2401 0.133942 39.2807C0.0985073 39.3211 0 39.4827 0 40.2927C0 41.0492 0.0801496 41.1521 0.160305 41.2348C0.240461 41.318 0.714409 41.6248 2.03441 41.8477C4.67442 42.2938 10.1142 42.3596 19.6398 42.3596C29.1616 42.3596 34.6528 42.2693 37.369 41.8082C38.7272 41.5777 39.2618 41.2524 39.3656 41.1511C39.4695 41.0489 39.5335 40.9943 39.5335 40.2927C39.5335 39.4081 39.4189 39.2092 39.3732 39.1579C39.3302 39.1103 38.963 38.8589 37.8401 38.6595V38.6671ZM1.51535 45.5999C1.51779 45.9761 1.5276 46.3376 1.55961 46.5933C1.67691 47.5133 1.84564 47.9774 2.5383 48.5473C3.92367 49.6869 8.51401 51 19.4428 51C30.3717 51 34.9649 49.6876 36.3525 48.5473C37.0462 47.9772 37.2171 47.5095 37.335 46.5897C37.3665 46.3411 37.3745 45.9923 37.3779 45.6282C33.9155 46.1166 28.6086 46.1451 19.6399 46.1451C10.2357 46.1451 4.90905 46.1453 1.51546 45.5999H1.51535Z" fill="#FFCB2D"/>
</svg>
