<svg width="64" height="64" viewBox="0 0 64 64" fill="none" xmlns="http://www.w3.org/2000/svg">
<path d="M6.24743 12.0184C5.93139 12.0184 5.61438 12.0419 5.29749 12.0749C4.50438 12.169 3.64467 12.371 2.80253 12.8464C1.94859 13.3283 1.1423 14.0758 0.606384 15.1578C0.152929 16.0733 -0.0344219 17.0831 0.00514985 18.0704C0.0443346 19.051 0.301277 19.968 0.696366 20.7675C1.48345 22.3604 2.74245 23.3849 4.02253 24.0109C6.5416 25.2432 8.96517 25.0784 10.7648 25.589C10.7696 25.589 10.7769 25.589 10.7817 25.589C9.91631 24.1922 9.18843 22.6747 8.61428 21.0559C7.39352 20.8699 6.30033 20.7063 5.43316 20.2823C4.68674 19.9171 4.08158 19.3542 3.78569 18.7553C3.63935 18.4591 3.55953 18.1385 3.54937 17.86C3.53969 17.5878 3.59437 17.318 3.68556 17.1337C3.79489 16.9124 4.03581 16.6494 4.35681 16.4681C4.68964 16.2798 5.13187 16.1522 5.64047 16.0922C5.86397 16.0663 6.08916 16.0545 6.31549 16.0569C6.68247 16.0569 7.04973 16.1134 7.41417 16.1887C7.22163 14.8786 7.1092 13.5317 7.1092 12.146C7.10915 12.1381 7.10915 12.1303 7.1092 12.1224C7.10937 12.0965 7.1116 12.0683 7.1116 12.0424C6.82419 12.0141 6.53633 12 6.24665 12L6.24743 12.0184ZM10.966 12.2255C10.9854 18.711 13.5208 24.0842 17.2795 27.4451C17.2789 27.358 17.2723 27.2756 17.2723 27.1885C17.2723 27.1806 17.2723 27.1728 17.2723 27.1649C17.2771 26.5265 17.3042 25.8878 17.3524 25.2512C17.3883 24.7817 17.6063 24.3427 17.9627 24.0225C18.319 23.7023 18.7874 23.5245 19.2735 23.5248H39.7978C41.6976 20.4402 42.8557 16.5807 42.869 12.2142L10.966 12.2255ZM57.7532 27.0534C57.4637 27.0534 57.1753 27.0769 56.8882 27.0957C56.8884 27.1216 56.8895 27.1499 56.8895 27.1758C56.8895 27.1836 56.8895 27.1915 56.8895 27.1993C56.8895 28.585 56.7782 29.9319 56.5857 31.242C56.9497 31.1667 57.3164 31.1126 57.6832 31.1102C57.9096 31.1102 58.136 31.1102 58.3594 31.1455C58.868 31.2044 59.3103 31.3339 59.6431 31.5215C59.9641 31.7028 60.2051 31.9662 60.3144 32.187C60.4058 32.3707 60.4616 32.6412 60.4505 32.9133C60.4384 33.1921 60.3593 33.5125 60.213 33.8087C59.9171 34.4076 59.312 34.9705 58.5656 35.3356C57.6985 35.7596 56.6051 35.9216 55.3844 36.1081C54.8104 37.7268 54.0836 39.2444 53.2182 40.6412C53.2231 40.6412 53.2303 40.6412 53.2352 40.6412C55.0348 40.1308 57.4596 40.2956 59.9787 39.0634C61.2588 38.4374 62.5178 37.4128 63.3048 35.8199C63.6999 35.0204 63.9555 34.1034 63.9948 33.1226C64.0345 32.1355 63.8482 31.1257 63.3948 30.2102C62.8589 29.1279 62.0526 28.3807 61.1987 27.8985C60.3565 27.4234 59.4969 27.2205 58.7038 27.1273C58.3868 27.0896 58.0699 27.0708 57.7537 27.0708L57.7532 27.0534ZM21.1319 27.2605C21.1564 35.2787 25.0186 41.6111 30.2941 44.5229H43.8736C49.1492 41.6111 53.0102 35.2787 53.0346 27.2605H21.1319ZM13.6846 29.3141C12.9468 29.6788 12.3508 30.0633 11.9572 30.4348C11.34 31.0172 11.1485 31.4591 11.1485 32.0298C11.1485 32.6002 11.3401 33.0433 11.9572 33.626C12.5744 34.2084 13.643 34.8292 15.0746 35.3413C16.1466 35.7246 17.4315 36.0403 18.8482 36.2938C18.4111 35.0938 18.0553 33.8419 17.797 32.5395C16.2975 31.6613 14.9199 30.5753 13.6846 29.3141V29.3141ZM23.8468 44.3501C23.1103 44.7145 22.5167 45.0992 22.1231 45.4707C21.5059 46.0531 21.3144 46.495 21.3144 47.0657C21.3144 47.6362 21.506 48.0792 22.1231 48.6619C22.7403 49.2441 23.8051 49.8652 25.2368 50.3772C28.1001 51.4011 32.3558 52 37.0814 52C41.8069 52 46.0614 51.4011 48.9247 50.3772C50.3564 49.8652 51.4262 49.2441 52.0433 48.6619C52.6606 48.0792 52.852 47.6362 52.852 47.0657C52.852 46.495 52.6605 46.0531 52.0433 45.4707C51.6497 45.0992 51.0541 44.7148 50.3159 44.3501C48.8614 45.8349 47.2112 47.0813 45.3948 48.0255C45.1157 48.1705 44.804 48.2465 44.4874 48.2468H29.6791C29.3612 48.2471 29.0481 48.171 28.7679 48.0255C26.9516 47.0813 25.3013 45.8349 23.8468 44.3501V44.3501Z" fill="#FFCB2D"/>
</svg>
