<svg width="64" height="64" viewBox="0 0 64 64" fill="none" xmlns="http://www.w3.org/2000/svg">
<path d="M10.098 0L28.5876 12.3535L35.6726 4.48743L10.098 0ZM8 2.65758L19.334 22.6297C19.3562 22.6024 19.3794 22.5758 19.4033 22.5499L26.3066 14.8863L8 2.65758ZM38.5048 6.3913C38.483 6.4186 38.4603 6.44522 38.4367 6.47112L31.43 14.2499L50.0066 26.6619L38.5048 6.3913ZM29.1465 16.7834L22.1649 24.5345L47.3699 28.9557L29.1465 16.7834ZM52.3355 28.7607L52.3342 28.7619L49.8098 31.0093C49.8205 31.0207 49.8314 31.032 49.8425 31.0431C51.6019 32.74 52.2064 34.1995 52.5448 36.7255C52.8384 38.9174 51.9895 41.0407 50.6449 43.1804C49.4227 45.1254 47.477 46.6144 45.2908 47.2801C43.9637 47.684 42.4042 47.8255 40.7175 48.0652C39.0253 48.3047 37.1592 48.661 35.4341 49.6801C33.1881 51.0065 31.6199 53.2761 31.1435 55.8488C30.6671 58.4217 31.3044 61.1282 32.8668 63.2599C32.9943 63.4469 33.1586 63.6065 33.3497 63.7293C33.5408 63.8521 33.7549 63.9355 33.9793 63.9746C34.2036 64.0137 34.4336 64.0076 34.6555 63.9568C34.8775 63.906 35.0868 63.8114 35.2711 63.6788C35.4554 63.5461 35.6108 63.3781 35.7282 63.1846C35.8456 62.9912 35.9224 62.7764 35.9542 62.5529C35.986 62.3294 35.9721 62.1019 35.9133 61.8838C35.8545 61.6658 35.752 61.4617 35.612 61.2837C34.6118 59.9188 34.186 58.0676 34.4841 56.4574C34.7823 54.8469 35.8145 53.3683 37.1725 52.5662C38.2461 51.9322 39.6544 51.6137 41.2033 51.3938C42.7578 51.1737 44.4934 51.0409 46.2861 50.495C49.277 49.5848 51.8668 47.6032 53.5276 44.9602C55.0658 42.5123 56.354 39.5829 55.9119 36.2828C55.5223 33.3739 54.5033 30.9091 52.3354 28.7619L52.3355 28.7607Z" fill="#FFCB2D"/>
</svg>
