<svg width="56" height="64" viewBox="0 0 56 64" fill="none" xmlns="http://www.w3.org/2000/svg">
<path d="M23.8724 20.483C23.1243 20.483 22.4454 20.5372 21.8427 20.6365C21.8107 20.6449 21.7784 20.6525 21.7458 20.6591C21.7136 20.6591 21.7108 20.6592 21.6794 20.6817V23.8529C21.6793 24.2604 21.5385 24.6556 21.2805 24.9728C21.0226 25.29 20.6629 25.5102 20.2613 25.5967C17.4349 26.2072 15.4442 27.3036 14.0731 28.825C14.0687 28.8325 14.0641 28.8398 14.0596 28.8473C12.6892 30.3355 12.0252 32.0667 12.0252 34.3774C12.0252 35.9065 12.2814 37.1122 12.6987 38.041C13.185 38.9939 13.8223 39.8104 14.6665 40.5187C15.547 41.2577 16.6272 41.9169 17.917 42.4867H17.9306C19.3036 43.0529 20.8373 43.6221 22.5326 44.1955H22.5462L25.0357 45.0221C25.0418 45.0221 25.0478 45.0221 25.0538 45.0221C26.2998 45.4483 27.3234 45.9342 28.1771 46.5603C29.2208 47.2828 29.8998 48.5854 29.8998 49.8412C29.8998 51.2239 29.1148 52.5034 28.0347 53.3603C26.6803 54.4344 24.941 54.6955 22.7989 54.6955C20.6924 54.6955 18.6907 54.3434 16.8406 53.6277C16.836 53.6277 16.8315 53.6277 16.827 53.6277C15.6126 53.1459 14.6443 52.4946 13.65 51.8615C13.3118 52.1278 12.9719 52.3276 12.6358 52.7394C12.627 52.7515 12.618 52.7636 12.6089 52.7755C12.2118 53.2385 12.0241 53.7176 12.0241 54.511C12.0241 55.1588 12.1691 55.6407 12.463 56.1019C12.792 56.6184 13.2535 57.0813 13.9033 57.5118H13.9078C14.6198 57.957 15.4712 58.3442 16.4778 58.6543C17.5468 58.9715 18.7476 59.2056 20.0797 59.3522C20.5197 59.4013 20.9261 59.6097 21.221 59.9372C21.516 60.2647 21.6789 60.6883 21.6787 61.1274V61.5981C21.6787 62.983 22.014 63.4231 22.0767 63.469C22.0812 63.469 22.0857 63.469 22.0902 63.469C22.3776 63.6836 23.2807 64 24.8237 64C25.5719 64 26.2449 63.9458 26.8476 63.8464C26.8812 63.8379 26.9151 63.8304 26.9492 63.8238C26.9815 63.8238 26.9842 63.8238 27.0156 63.8012V60.686C27.0148 60.2747 27.1572 59.8756 27.4188 59.5565C27.6803 59.2373 28.045 59.0175 28.4512 58.9342C31.4729 58.3203 33.5731 57.2014 34.9674 55.6649C34.9686 55.6649 34.9703 55.6649 34.9721 55.6649C36.4048 54.0439 37.0858 52.2362 37.0858 49.9365C37.0858 47.165 36.278 45.2559 34.6267 43.747C34.6176 43.738 34.6087 43.7291 34.5998 43.7199C32.8853 42.0879 30.2759 40.6505 26.7192 39.5251C26.7177 39.5251 26.7162 39.5251 26.7147 39.5251L23.5785 38.5284C23.574 38.5284 23.5718 38.5284 23.565 38.5284H23.556C22.4347 38.1851 21.5275 37.8211 20.7606 37.2946C20.7353 37.2772 20.7103 37.2593 20.6859 37.2406C19.8248 36.5838 19.2106 35.4524 19.2106 34.346C19.2106 32.9547 20.1648 31.6738 21.3371 30.9939C22.657 30.1906 24.2395 29.9623 26.1913 29.9623C28.0844 29.9623 29.864 30.201 31.517 30.6871C31.5216 30.6871 31.5261 30.6871 31.5306 30.6871C32.5347 30.9583 33.2711 31.3611 34.0738 31.7282C34.2996 31.4926 34.5578 31.2907 34.7473 31.0113C35.0206 30.577 35.1768 30.0663 35.1768 29.3248C35.1768 28.2091 34.8589 27.6301 33.7505 26.9358C33.7444 26.9284 33.7384 26.9208 33.7325 26.9132C32.5714 26.1663 30.8664 25.5886 28.5853 25.2968C28.1516 25.2409 27.7531 25.0304 27.4645 24.7046C27.1758 24.3787 27.0166 23.9596 27.0167 23.5259V22.8761C27.0167 21.5054 26.6934 21.1015 26.5918 21.0308C26.5632 21.0113 26.5352 20.991 26.5078 20.9699C26.2838 20.7937 25.4154 20.4689 23.8724 20.4689L23.8724 20.483Z" fill="#FFCB2D"/>
<path d="M35.1903 18.8001C33.1108 18.8001 31.2722 18.9331 29.6358 19.1701C30.1998 20.0292 30.4453 21.1036 30.517 22.2491C32.4244 22.634 34.2962 23.0413 35.6782 23.9274C37.5852 25.1239 38.7781 27.1397 38.7781 29.3301C38.7781 29.3911 38.7738 29.4521 38.7722 29.5153C44.1311 29.5153 48.2952 29.4928 51.0542 29.678H52.8014C52.4106 26.8695 51.5162 24.4038 49.3991 22.5849C46.804 20.3553 42.3981 18.8003 35.1903 18.8012L35.1903 18.8001ZM24.4898 20.5039C23.3995 20.9498 22.4692 21.4678 21.6793 22.0424V23.8353C21.6791 24.2427 21.5383 24.6377 21.2804 24.9549C21.0224 25.2721 20.6628 25.4923 20.2612 25.5788C19.6406 25.7121 19.0669 25.8747 18.5245 26.055C18.0625 27.1721 17.768 28.3857 17.5885 29.6769H21.3012C24.5037 29.5166 28.9152 29.5142 35.1669 29.5142C35.1694 29.451 35.1776 29.3967 35.1776 29.329C35.1776 28.2132 34.8597 27.634 33.7513 26.9397C33.7452 26.9322 33.7392 26.925 33.7332 26.9174C32.5722 26.1705 30.8671 25.593 28.5861 25.3009C28.1524 25.2451 27.754 25.0345 27.4653 24.7087C27.1766 24.3829 27.0174 23.964 27.0174 23.5303V22.8802C27.0174 21.5093 26.6942 21.1053 26.5926 21.0347C26.564 21.0151 26.536 20.9948 26.5086 20.9737C26.3166 20.8224 25.6472 20.5656 24.4906 20.494L24.4898 20.5039ZM37.6716 33.1012C37.1041 33.9174 36.4209 34.6378 35.6291 35.2382C35.3362 35.4603 34.9815 35.5877 34.6131 35.6035C34.2447 35.6192 33.8803 35.5224 33.5691 35.3261C32.9171 34.9148 31.9041 34.4888 30.552 34.1265C30.5372 34.1192 30.5224 34.1116 30.5077 34.1039C29.225 33.7256 27.7903 33.5285 26.1928 33.5285C24.5788 33.5285 23.5566 33.8173 23.2119 34.0292C23.193 34.0393 23.174 34.0492 23.1548 34.0587C22.676 34.3297 22.8128 34.2484 22.8128 34.3399C22.8128 34.3648 22.8432 34.367 22.8353 34.3625C23.1023 34.5409 23.7205 34.8371 24.6386 35.1174C24.6461 35.1174 24.6536 35.1174 24.6612 35.1174L27.816 36.1234C29.167 36.551 30.4147 37.0306 31.5719 37.5579C32.8127 37.5579 33.9664 37.5579 35.3861 37.5579C44.8204 37.5579 50.2584 37.4676 52.9739 36.9919C54.3318 36.7541 54.8899 36.4213 55.0234 36.2869C55.157 36.1514 55.2277 36.0501 55.2277 35.317C55.2277 34.4027 55.1129 34.1573 55.0363 34.0692C54.9597 33.9811 54.5497 33.6876 53.2459 33.4775C52.4733 33.3533 51.4124 33.2697 50.0992 33.2103C48.8913 34.1739 46.4325 36.0118 45.2217 36.0231C44.1132 36.0231 42.3265 34.2476 41.2732 33.0786C40.1852 33.0786 38.8946 33.0786 37.6726 33.0786L37.6716 33.1012ZM19.359 33.4174C18.7146 33.4761 18.1342 33.5393 17.6807 33.6206C16.411 33.848 16.0259 34.1458 15.9603 34.223C15.8948 34.2998 15.7945 34.5042 15.7945 35.341C15.7945 36.1277 15.8792 36.2733 15.9894 36.3903C16.0996 36.5078 16.5995 36.8293 17.9199 37.0592C18.6633 37.1879 19.6523 37.2851 20.8599 37.3581C20.8283 37.3355 20.7931 37.3197 20.7619 37.2993C20.7365 37.2819 20.7116 37.2637 20.6872 37.245C19.8261 36.5882 19.2119 35.4569 19.2119 34.3507C19.2119 34.0308 19.2672 33.7188 19.3589 33.4169L19.359 33.4174ZM17.3037 42.0577C17.3043 42.0871 17.3043 42.1325 17.3049 42.1664C17.5066 42.2657 17.7046 42.3672 17.9176 42.4603H17.9312C19.3042 43.0265 20.838 43.5958 22.5333 44.1691H22.5468L25.0363 44.9951C25.0424 44.9951 25.0484 44.9951 25.0544 44.9951C25.6387 45.1938 26.1697 45.411 26.6616 45.6452C28.9681 45.8146 31.741 45.9242 35.19 45.9242C35.5735 45.9242 35.893 45.9242 36.2614 45.9016C35.8623 45.0869 35.3248 44.3714 34.6274 43.7343C34.6183 43.7253 34.6094 43.7161 34.6006 43.707C33.9848 43.1209 33.2495 42.5615 32.4005 42.031L17.3037 42.0577ZM37.9553 42.0577C38.9065 43.1631 39.6084 44.4438 40.0632 45.8534C47.4931 45.5966 51.0554 44.7712 52.2389 44.034C52.9487 43.5918 52.9665 43.4354 53.0594 42.8854C53.0875 42.7183 53.0804 42.2949 53.0862 42.0577H37.9553Z" fill="#FFCB2D"/>
<path d="M10.1642 0.00176881C8.40357 0.037906 6.94952 0.38534 6.20292 0.796627C5.45858 1.20656 5.44672 1.25916 5.51428 1.72217C5.56487 2.06321 5.61478 2.25465 5.64731 2.3188C5.67983 2.38429 5.61411 2.36631 5.83635 2.45665C6.06495 2.5487 6.27211 2.68676 6.44489 2.86249C6.61766 3.03821 6.75235 3.24774 6.84052 3.47786C6.9287 3.70798 6.96847 3.95374 6.95735 4.19993C6.94624 4.44612 6.88446 4.68753 6.77591 4.90877C5.45123 7.59964 5.09848 11.57 5.11737 16.2543C5.11823 16.609 5.01385 16.9559 4.81743 17.2513C1.93533 21.5923 0.438829 26.1083 0.110319 32.2234C-0.217017 38.3171 0.288054 54.1012 0.291216 54.1963C0.34497 54.8793 1.34929 55.9424 3.3655 55.9424H8.58619C8.48365 55.4708 8.42853 54.9864 8.42853 54.4974C8.42853 53.0126 8.91863 51.5752 9.86411 50.4649C10.6554 49.5005 11.5539 48.7073 12.5754 48.1504C12.8852 47.9817 13.2382 47.9072 13.5904 47.9362C13.9426 47.9651 14.2785 48.0962 14.5561 48.313C15.5065 49.0536 16.7042 49.7247 18.1614 50.3031C19.0579 50.6486 20.0144 50.8733 21.0268 50.9998C21.0728 49.9141 21.102 48.996 21.1458 47.4821C19.4628 46.9082 17.9104 46.333 16.5052 45.7523C16.4918 45.7449 16.4786 45.7374 16.4654 45.7297C14.9027 45.041 13.5219 44.2082 12.3407 43.2172C11.1303 42.2017 10.1551 40.9745 9.452 39.5801C9.44147 39.5585 9.43139 39.5365 9.42174 39.5145C8.73414 38.0048 8.4285 36.2711 8.4285 34.3488C8.4285 31.3052 9.43328 28.55 11.3966 26.4154C11.3977 26.4154 11.3988 26.4154 11.4011 26.4154C13.0608 24.5792 15.3961 23.3961 18.0772 22.5988V20.2587C17.5887 19.2315 17.0292 18.2482 16.3615 17.2438C16.1599 16.941 16.0553 16.5841 16.0615 16.2204C16.0618 16.1978 16.0612 16.1863 16.0615 16.1705L15.9996 14.0454C15.7688 10.1387 15.476 7.10021 14.3936 4.91346C14.289 4.70203 14.2271 4.472 14.2115 4.2366C14.1959 4.0012 14.227 3.76492 14.3029 3.54155C14.3788 3.31818 14.4981 3.11218 14.6538 2.935C14.8096 2.75782 14.9988 2.61293 15.2106 2.50903C15.2106 2.50903 15.8805 2.30148 15.779 1.53469C15.7745 1.50533 15.5629 1.07711 14.5348 0.661531C13.5068 0.245501 11.9151 -0.0329899 10.1638 0.00314734L10.1642 0.00176881ZM19.8784 25.6732C17.2586 26.2986 15.3798 27.3572 14.073 28.8072C14.0686 28.8147 14.064 28.8223 14.0595 28.8298C12.6891 30.318 12.0251 32.0489 12.0251 34.3596C12.0251 35.8887 12.2813 37.0944 12.6986 38.0232C13.1849 38.9761 13.8222 39.7929 14.6664 40.5012C15.5469 41.2402 16.6271 41.8991 17.9169 42.4689H17.9305C18.9315 42.8818 20.0482 43.2967 21.2207 43.7132C21.232 42.9299 21.2505 42.1752 21.2521 41.3766C21.2543 40.0887 21.2363 38.8136 21.2078 37.5718C21.0553 37.4838 20.9031 37.3977 20.7608 37.2997C20.7354 37.2823 20.7105 37.2644 20.686 37.2457C19.8249 36.5887 19.2107 35.4573 19.2107 34.3511C19.2107 33.1775 19.8925 32.0875 20.8086 31.3654C20.6403 29.9757 20.4591 28.6953 20.2554 27.55C20.1372 26.8857 20.0096 26.2681 19.8772 25.6732H19.8784ZM13.6516 51.8479C13.3134 52.1141 12.9735 52.314 12.6374 52.7257C12.6286 52.7379 12.6196 52.7499 12.6105 52.7618C12.2135 53.2248 12.0258 53.7039 12.0258 54.4974C12.0258 55.0783 12.1493 55.5236 12.3853 55.9424H17.8044C19.4714 55.9424 20.4372 55.2142 20.7573 54.5721C19.3938 54.4163 18.0826 54.1033 16.8415 53.6231C16.837 53.6231 16.8324 53.6231 16.8279 53.6231C15.6134 53.1414 14.6452 52.4903 13.6509 51.8572L13.6516 51.8479Z" fill="#FFCB2D"/>
</svg>
