<svg width="64" height="64" viewBox="0 0 64 64" fill="none" xmlns="http://www.w3.org/2000/svg">
<path d="M33.1702 0.000369288C32.7319 0.00882775 32.3101 0.17209 31.9761 0.462454C31.6422 0.752818 31.4168 1.1524 31.338 1.59342L29.5615 10.7535C29.5131 11.0038 29.5133 11.2614 29.5622 11.5117C29.6111 11.7619 29.7077 11.9999 29.8464 12.2119C29.9852 12.424 30.1635 12.606 30.3711 12.7476C30.5786 12.8892 30.8114 12.9876 31.0562 13.0372C31.3009 13.0867 31.5528 13.0865 31.7974 13.0365C32.0421 12.9865 32.2747 12.8877 32.482 12.7458C32.6894 12.6038 32.8673 12.4215 33.0058 12.2092C33.1442 11.9969 33.2404 11.7587 33.2888 11.5084L35.0641 2.34811C35.1239 2.06187 35.1196 1.76551 35.0517 1.48117C34.9838 1.19684 34.8539 0.931874 34.6718 0.706103C34.4897 0.480333 34.26 0.299588 34 0.177379C33.7399 0.0551702 33.4563 -0.00533784 33.1702 0.000369288ZM22.6918 0.526331C22.3945 0.537809 22.1041 0.620559 21.8438 0.767909C21.5836 0.91526 21.3608 1.12309 21.1935 1.37465C21.0262 1.62621 20.919 1.91446 20.8805 2.21616C20.8421 2.51787 20.8735 2.8246 20.9722 3.11162L23.8699 11.9683C23.9469 12.2129 24.0705 12.4394 24.2337 12.6348C24.3969 12.8301 24.5963 12.9904 24.8204 13.1063C25.0446 13.2223 25.289 13.2916 25.5395 13.3103C25.79 13.3289 26.0417 13.2965 26.2799 13.215C26.5181 13.1335 26.7381 13.0044 26.9272 12.8353C27.1163 12.6662 27.2707 12.4604 27.3815 12.2298C27.4923 11.9992 27.5573 11.7485 27.5727 11.492C27.588 11.2356 27.5535 10.9786 27.4711 10.7359L24.5734 1.87891C24.4475 1.47398 24.1954 1.12242 23.8555 0.878111C23.5157 0.633805 23.1069 0.510235 22.6918 0.526331ZM42.5841 6.23167C42.3078 6.23973 42.0365 6.3094 41.7892 6.43582C41.542 6.56225 41.3247 6.74238 41.1525 6.96362L35.3706 14.1908C35.2024 14.3867 35.0744 14.6151 34.9944 14.8627C34.9143 15.1102 34.8837 15.3716 34.9046 15.6315C34.9254 15.8913 34.9971 16.1442 35.1156 16.3751C35.234 16.606 35.3966 16.8101 35.5938 16.9753C35.791 17.1405 36.0186 17.2634 36.2633 17.3367C36.5079 17.41 36.7644 17.4322 37.0176 17.4019C37.2707 17.3716 37.5153 17.2895 37.7368 17.1605C37.9583 17.0314 38.1521 16.8581 38.3067 16.6509L44.0898 9.42365C44.3256 9.13707 44.4753 8.78687 44.521 8.41525C44.5666 8.04363 44.5062 7.66643 44.3471 7.3291C44.188 6.99178 43.9369 6.70871 43.6241 6.514C43.3113 6.31929 42.9501 6.22124 42.5841 6.23167ZM14.4461 15.0013C13.7347 16.5038 13.0465 18.0582 12.6931 19.7861C12.6398 20.0486 12.5979 20.3042 12.551 20.5635C12.8413 20.5635 13.1261 20.588 13.3879 20.6075C14.8219 20.725 16.4462 21.0709 17.8915 21.4471C19.2849 21.8099 20.3347 22.1123 21.1874 22.5316C21.7452 22.7772 23.0306 22.8709 24.4597 22.6735C25.7681 22.4924 27.1778 22.1257 28.3785 21.7607C28.5147 20.4828 28.4922 19.2188 28.4441 17.9758L14.4461 15.0013ZM47.1297 19.5473L33.2455 23.0363C33.236 24.7056 33.2723 26.4112 33.6819 28.1259C33.7372 28.3558 33.8001 28.5757 33.8587 28.801C35.0559 29.1646 36.4579 29.5293 37.7603 29.7086C39.1869 29.9043 40.4708 29.8114 41.0302 29.5668C41.8834 29.1465 42.9333 28.8439 44.3284 28.4808C45.7738 28.1046 47.3981 27.7592 48.8321 27.6415C49.0939 27.617 49.3786 27.6048 49.669 27.5975C49.5216 26.5238 49.3161 25.4107 49.041 24.2651C48.629 22.5521 47.8913 21.0237 47.1297 19.5473ZM12.0799 24.4471C11.9649 26.5793 12.1201 28.4879 12.5905 30.0068C13.3841 32.5691 14.7555 34.1008 17.7332 34.7337C20.711 35.3668 22.5641 34.5208 24.2902 32.4935C25.5707 30.9903 26.642 28.7374 27.4426 26.0399C26.6484 26.2331 25.8132 26.4039 24.9665 26.5203C23.2033 26.7625 21.3871 26.845 19.6853 26.0954L19.6369 26.0709L19.5886 26.044C19.5434 26.0196 18.2609 25.5504 16.9529 25.2098C15.6449 24.8696 14.1285 24.5623 13.0823 24.4767C12.7676 24.4522 12.3877 24.4424 12.0797 24.4449L12.0799 24.4471ZM49.9014 31.4925C49.6423 31.4925 49.3781 31.492 49.1386 31.517C48.0925 31.6026 46.5748 31.9086 45.2667 32.2489C43.9587 32.5894 42.6763 33.0599 42.6311 33.0831L42.5828 33.11L42.5344 33.1345C40.8326 33.8843 39.0176 33.8023 37.2545 33.5594C36.6046 33.4689 35.9668 33.3417 35.3432 33.2042C36.0845 34.9139 36.943 36.3541 37.8985 37.3975C39.6948 39.3592 41.5774 40.1371 44.5309 39.3949C47.4845 38.6527 48.8001 37.0706 49.5031 34.4809C49.7421 33.6005 49.8666 32.5909 49.9012 31.495L49.9014 31.4925ZM15.3695 38.0749L12.839 50.5309C13.3756 50.6067 13.9169 50.6948 14.4659 50.8117C15.0152 50.9291 15.5472 51.0676 16.0693 51.2173L18.5998 38.7615C18.063 38.7273 17.5172 38.6563 16.9606 38.5389C16.4042 38.4215 15.8748 38.263 15.3695 38.0749ZM47.0111 42.6424C46.5127 42.8479 45.9892 43.0245 45.4373 43.1632C44.8855 43.3027 44.3418 43.3932 43.8067 43.4465L46.7737 55.8012C47.2901 55.6324 47.816 55.4729 48.361 55.3362C48.9052 55.1992 49.4433 55.0911 49.9768 54.9959L47.0111 42.6424ZM10.0167 54.2084C8.87923 54.2084 7.85594 54.321 7.02369 54.5321C5.56159 54.9029 5.17356 55.436 5 55.7836C5.21243 55.8815 5.36005 55.9818 5.90615 56.1085C7.50904 56.4835 10.1847 56.7352 13.1344 57.3625C16.0841 57.9895 18.6427 58.8508 20.2589 59.1603C20.8095 59.2655 20.9823 59.2361 21.2157 59.2312C21.1918 58.8423 21.0404 58.194 19.8423 57.2566C18.4801 56.1909 16.2687 55.1608 13.6932 54.6133C12.4054 54.3395 11.1541 54.2131 10.0167 54.2084ZM53.7572 58.556C52.4111 58.5316 50.8638 58.7077 49.2672 59.1084C46.7126 59.7506 44.5384 60.8605 43.2146 61.9755C42.0517 62.955 41.9266 63.608 41.9165 63.9982C42.15 63.9982 42.3243 64.0226 42.8709 63.893C44.4752 63.5243 46.9967 62.5702 49.9224 61.8349C52.8481 61.0995 55.5187 60.7492 57.1074 60.3155C57.6487 60.1687 57.7911 60.0642 58 59.9576C57.8153 59.6168 57.4055 59.0979 55.9293 58.7806C55.2999 58.6461 54.5648 58.5678 53.7572 58.558V58.556Z" fill="#FFCB2D"/>
</svg>
